<svg xmlns="http://www.w3.org/2000/svg" version="1.1" xmlns:xlink="http://www.w3.org/1999/xlink"
    width="512" height="512" x="0" y="0" viewBox="0 0 512 512"
    style="enable-background:new 0 0 512 512" xml:space="preserve" class=""><g><path d="M255.601 106.401c0-11.779 9.579-21.314 21.366-21.314 11.785 0 21.363 9.535 21.363 21.314s-9.578 21.314-21.363 21.314c-11.787.001-21.366-9.534-21.366-21.314zm-71.088 0c0-11.779-9.579-21.314-21.365-21.314-11.807 0-21.364 9.535-21.364 21.314s9.558 21.314 21.364 21.314c11.786.001 21.365-9.534 21.365-21.314zM469.5 454.46l-15.075 15.04-67.257-68.096c-18.379 15.004-41.869 24.008-67.473 24.008-58.888 0-106.614-47.613-106.614-106.364H127.79l-.041-29.758L42.5 340.32V148.865l85.123 50.955-.041-29.516 34.384-.029c-34.831-.632-62.87-28.972-62.87-63.873 0-35.296 28.673-63.901 64.051-63.901 24.775 0 46.253 14.054 56.899 34.604 10.647-20.551 32.129-34.604 56.92-34.604 35.377 0 64.051 28.605 64.051 63.901 0 33.971-26.564 61.732-60.101 63.77l38.778-.034v42.546c58.887 0 106.613 47.614 106.613 106.364 0 25.544-9.025 48.98-24.065 67.315zM127.714 264.499l-.056-39.846-63.836-38.219V302.75zm106.523-158.098c0 23.507 19.157 42.628 42.73 42.628 23.57 0 42.729-19.122 42.729-42.628s-19.158-42.629-42.729-42.629c-23.573 0-42.73 19.124-42.73 42.629zm-69.826 63.87 108.692-.093c-23.146-1.375-42.967-15.005-53.057-34.48-10.463 20.198-31.396 34.103-55.635 34.573zm-1.264-21.241c23.551 0 42.708-19.122 42.708-42.628s-19.157-42.629-42.708-42.629c-23.571 0-42.729 19.123-42.729 42.629.001 23.506 19.158 42.628 42.729 42.628zm52.068 148.744c8.479-41.679 41.379-74.504 83.156-82.962v-23.381l-149.424.125.125 106.219h66.143zm189.769 21.274c0-46.919-38.271-85.092-85.289-85.092-47.02 0-85.292 38.173-85.292 85.092s38.272 85.091 85.292 85.091c47.018 0 85.289-38.172 85.289-85.091zm-127.935 0h-21.322c0 35.255 28.632 63.818 63.969 63.818v-21.272c-23.51 0-42.647-19.092-42.647-42.546z" fill="#000000" opacity="1" data-original="#000000" class=""></path></g></svg>