<svg width="120" height="120" viewBox="0 0 120 120" fill="none" xmlns="http://www.w3.org/2000/svg">
    <path
        d="M93.75 110.625C93.75 113.73 91.23 116.25 88.125 116.25C85.02 116.25 82.5 113.73 82.5 110.625C82.5 107.52 85.02 105 88.125 105C91.23 105 93.75 107.52 93.75 110.625ZM39.375 105C36.27 105 33.75 107.52 33.75 110.625C33.75 113.73 36.27 116.25 39.375 116.25C42.48 116.25 45 113.73 45 110.625C45 107.52 42.48 105 39.375 105ZM112.526 33.7613C114.964 33.7613 116.753 36.0525 116.164 38.4187L104.948 83.4075C104.528 85.0763 103.028 86.25 101.306 86.25H34.8L36.675 93.75H93.75C95.8238 93.75 97.5 95.43 97.5 97.5C97.5 99.57 95.8238 101.25 93.75 101.25H33.6938C31.9725 101.25 30.4725 100.076 30.0563 98.4075L12.075 26.25H3.75C1.67625 26.25 0 24.57 0 22.5C0 20.43 1.67625 18.75 3.75 18.75H14.9925C16.7138 18.75 18.2138 19.92 18.63 21.5887L21.675 33.75L112.526 33.7613ZM107.7 41.25H23.55L32.925 78.75H98.3175L107.7 41.25ZM41.25 48.75H37.5V52.5H41.25V48.75ZM48.75 48.75H45V52.5H48.75V48.75ZM56.25 48.75H52.5V52.5H56.25V48.75ZM63.75 48.75H60V52.5H63.75V48.75ZM71.25 48.75H67.5V52.5H71.25V48.75ZM78.75 48.75H75V52.5H78.75V48.75ZM86.25 48.75H82.5V52.5H86.25V48.75ZM93.75 48.75H90V52.5H93.75V48.75ZM93.75 56.25H90V60H93.75V56.25ZM93.75 63.75H90V67.5H93.75V63.75ZM86.25 56.25H82.5V60H86.25V56.25ZM78.75 56.25H75V60H78.75V56.25ZM71.25 56.25H67.5V60H71.25V56.25ZM63.75 56.25H60V60H63.75V56.25ZM56.25 56.25H52.5V60H56.25V56.25ZM48.75 56.25H45V60H48.75V56.25ZM41.25 56.25H37.5V60H41.25V56.25ZM41.25 67.5V63.75H37.5V67.5H41.25ZM48.75 63.75H45V67.5H48.75V63.75ZM56.25 63.75H52.5V67.5H56.25V63.75ZM63.75 63.75H60V67.5H63.75V63.75ZM71.25 63.75H67.5V67.5H71.25V63.75ZM78.75 63.75H75V67.5H78.75V63.75ZM86.25 63.75H82.5V67.5H86.25V63.75Z"
        fill="white" />
</svg>
