<svg width="30" height="30" viewBox="0 0 30 30" fill="none" xmlns="http://www.w3.org/2000/svg">
<path opacity="0.5" fill-rule="evenodd" clip-rule="evenodd" d="M24.609 17.6164L24.8382 15.4855C24.9605 14.3486 25.0412 13.5979 24.9779 13.1249C24.4196 13.1184 23.9199 12.8679 23.5806 12.4751C23.173 12.7266 22.6402 13.2575 21.8381 14.0564C21.2202 14.6719 20.9112 14.9796 20.5666 15.0273C20.3756 15.0538 20.1811 15.0265 20.0047 14.9489C19.6865 14.8088 19.4742 14.4283 19.0499 13.6674L16.8131 9.65671C16.5512 9.18726 16.3321 8.79445 16.1346 8.47827C15.7941 8.652 15.4085 8.74996 15 8.74996C14.5915 8.74996 14.2059 8.652 13.8654 8.47828C13.6679 8.79446 13.4487 9.18727 13.1869 9.65672L10.9501 13.6674C10.5257 14.4283 10.3135 14.8088 9.99526 14.9489C9.81892 15.0265 9.62434 15.0538 9.43337 15.0273C9.08871 14.9796 8.77976 14.6719 8.16187 14.0564C7.35981 13.2575 6.82696 12.7266 6.41941 12.4751C6.08007 12.8679 5.58042 13.1184 5.02214 13.1249C4.95877 13.5979 5.03952 14.3486 5.16181 15.4855L5.391 17.6164C5.4297 17.976 5.4664 18.3305 5.5024 18.678C5.81777 21.7228 6.07865 24.2414 7.1401 25.1914C8.32271 26.25 10.0952 26.25 13.6401 26.25H16.3599C19.9049 26.25 21.6772 26.25 22.8599 25.1914C23.9214 24.2414 24.1822 21.7228 24.4976 18.6781C24.5336 18.3305 24.5702 17.976 24.609 17.6164Z" fill="#FFD914"/>
<path d="M25 13.125C26.0355 13.125 26.875 12.2855 26.875 11.25C26.875 10.2145 26.0355 9.375 25 9.375C23.9645 9.375 23.125 10.2145 23.125 11.25C23.125 11.7183 23.2968 12.1466 23.5806 12.4752C23.9199 12.868 24.4196 13.1184 24.9779 13.1249L25 13.125Z" fill="#FFD914"/>
<path d="M15 3.75C13.6193 3.75 12.5 4.86929 12.5 6.25C12.5 7.22222 13.055 8.06484 13.8654 8.47831C14.2059 8.65204 14.5915 8.75 15 8.75C15.4085 8.75 15.7941 8.65204 16.1346 8.47831C16.945 8.06484 17.5 7.22222 17.5 6.25C17.5 4.86929 16.3807 3.75 15 3.75Z" fill="#FFD914"/>
<path d="M3.125 11.25C3.125 12.2855 3.96446 13.125 5 13.125L5.02214 13.1249C5.58043 13.1184 6.08008 12.868 6.41941 12.4751C6.7033 12.1465 6.875 11.7183 6.875 11.25C6.875 10.2145 6.03554 9.375 5 9.375C3.96446 9.375 3.125 10.2145 3.125 11.25Z" fill="#FFD914"/>
<path d="M6.06151 22.8125C5.93903 22.2496 5.84108 21.619 5.75391 20.9375H24.2467C24.1595 21.619 24.0616 22.2496 23.9391 22.8125H6.06151Z" fill="#FFD914"/>
</svg>
