<svg width="15" height="15" viewBox="0 0 15 15" fill="none" xmlns="http://www.w3.org/2000/svg">
<g clip-path="url(#clip0_2145_1759)">
<path d="M5.78116 2.09372C5.78116 1.88249 5.6086 1.70996 5.3974 1.70996C5.18512 1.70996 5.01367 1.88252 5.01367 2.09372V5.2838C5.25774 5.14279 5.5143 5.023 5.78116 4.92494V2.09372Z" fill="white"/>
<path d="M9.98624 2.09372C9.98624 1.88249 9.81345 1.70996 9.60251 1.70996C9.39022 1.70996 9.21875 1.88252 9.21875 2.09372V4.92494C9.48535 5.023 9.74217 5.14279 9.98624 5.2838V2.09372Z" fill="white"/>
<path d="M11.4172 5.91504V1.81462C11.4172 1.31479 11.2134 0.858662 10.8856 0.531651C10.5671 0.212549 10.1261 0.0124514 9.64184 0.00210958C9.62988 0.000820514 9.61664 0.000263874 9.60234 2.01686e-07C9.10251 -0.000234173 8.64639 0.203819 8.31911 0.531651C7.99151 0.858692 7.78749 1.31481 7.78775 1.81462V4.23322C7.6926 4.22789 7.59691 4.2242 7.50021 4.2242C7.4032 4.2242 7.30778 4.22789 7.21266 4.23322V1.81462C7.21292 1.31479 7.00884 0.858662 6.68127 0.531358C6.36272 0.212315 5.92119 0.012217 5.437 0.0018752C5.42613 0.000820514 5.41397 0.000263874 5.40073 0.000263874C5.39991 0.000263874 5.39912 2.01686e-07 5.39807 2.01686e-07C5.39807 2.01686e-07 5.39807 2.01686e-07 5.39777 2.01686e-07C4.8982 -0.000234173 4.44188 0.203819 4.1148 0.531387C3.78721 0.858692 3.58318 1.31481 3.58318 1.81465V5.9148C2.67255 6.87867 2.11204 8.18127 2.1123 9.61213C2.11201 11.0986 2.71603 12.4481 3.69023 13.4218C4.66392 14.3963 6.01345 15 7.49968 15H7.50021C8.98644 15.0003 10.3359 14.3963 11.3096 13.422C12.2841 12.4484 12.8881 11.0989 12.8881 9.61236C12.8881 8.1815 12.3276 6.87894 11.4172 5.91504ZM10.7488 12.861C9.91614 13.6932 8.7702 14.2066 7.50021 14.2068H7.49994C6.22995 14.2066 5.08374 13.6929 4.25104 12.8607C3.41915 12.028 2.90578 10.8821 2.90552 9.6121C2.90578 8.33786 3.42258 7.18872 4.25953 6.35522L4.37666 6.23889V1.81462C4.37666 1.53129 4.49036 1.27849 4.67561 1.09242C4.86164 0.906914 5.11447 0.793506 5.39777 0.793242H5.39807C5.68137 0.793506 5.9342 0.906914 6.12023 1.09242C6.30574 1.27849 6.41918 1.53129 6.41944 1.81462V5.12367L6.86997 5.06165C7.07751 5.03329 7.28739 5.01765 7.50021 5.01765C7.71275 5.01765 7.9229 5.03329 8.13044 5.06165L8.58097 5.12367V1.81462C8.58123 1.53158 8.69493 1.27849 8.88018 1.09242C9.06598 0.907442 9.31799 0.794004 9.6005 0.793506H9.60237C9.88594 0.79374 10.1388 0.907178 10.3248 1.09272C10.5103 1.27849 10.6238 1.53158 10.6238 1.81465V6.23918L10.7406 6.35552C11.5773 7.18875 12.0944 8.33789 12.0946 9.61239C12.0944 10.8823 11.581 12.0283 10.7488 12.861Z" fill="white"/>
<path d="M5.94592 9.02216C5.94592 8.74018 5.7172 8.51172 5.43551 8.51172C5.1535 8.51172 4.9248 8.74018 4.9248 9.02216C4.9248 9.30411 5.15353 9.53257 5.43551 9.53257C5.7172 9.53257 5.94592 9.30411 5.94592 9.02216Z" fill="white"/>
<path d="M9.56513 8.51172C9.28312 8.51172 9.05469 8.74018 9.05469 9.02216C9.05469 9.30411 9.28314 9.53257 9.56513 9.53257C9.84711 9.53257 10.0756 9.30411 10.0756 9.02216C10.0756 8.74018 9.84711 8.51172 9.56513 8.51172Z" fill="white"/>
<path d="M9.02034 10.7031C8.91089 10.7031 8.82212 10.7919 8.82212 10.9013C8.82212 11.0572 8.75957 11.1966 8.65753 11.2989C8.55525 11.4006 8.41612 11.4632 8.26029 11.4635C8.10443 11.4632 7.96533 11.4006 7.86273 11.2989C7.79066 11.2262 7.73872 11.1346 7.71432 11.0323C8.0106 10.9408 8.22607 10.6647 8.22607 10.3385C8.22607 9.93747 7.90088 9.6123 7.50019 9.6123C7.09894 9.6123 6.77403 9.93747 6.77403 10.3385C6.77403 10.6647 6.98948 10.9409 7.28605 11.0323C7.26168 11.1346 7.20947 11.2262 7.13711 11.2989C7.0348 11.4006 6.89541 11.4632 6.73984 11.4635C6.58401 11.4632 6.44488 11.4006 6.34258 11.2989C6.24054 11.1966 6.17799 11.0572 6.17772 10.9013C6.17772 10.7919 6.08922 10.7031 5.9795 10.7031C5.87002 10.7031 5.78125 10.7919 5.78125 10.9013C5.78125 11.4308 6.21033 11.8599 6.73984 11.8599C7.04992 11.8599 7.32476 11.712 7.50022 11.4836C7.67512 11.7121 7.95022 11.8599 8.26029 11.8599C8.78978 11.8599 9.21859 11.4309 9.21889 10.9013C9.21886 10.7919 9.13006 10.7031 9.02034 10.7031Z" fill="white"/>
</g>
<defs>
<clipPath id="clip0_2145_1759">
<rect width="15" height="15" rx="7.5" fill="white"/>
</clipPath>
</defs>
</svg>
