<svg width="30" height="30" viewBox="0 0 30 30" fill="none" xmlns="http://www.w3.org/2000/svg">
<g clip-path="url(#clip0_2160_5348)">
<path fill-rule="evenodd" clip-rule="evenodd" d="M25.9886 19.3893C25.742 25.2786 20.8915 29.9779 14.9416 29.9779C8.834 29.9779 3.88282 24.8603 3.88282 18.9191C3.88282 18.125 3.86858 16.5379 5.05929 13.8603C5.77188 12.2578 6.21882 11.2511 6.47106 10.3309C6.60964 9.82511 6.87917 9.02158 7.64753 10.3309C8.10058 11.1029 8.11811 12.2132 8.11811 12.2132C8.11811 12.2132 9.80376 10.9197 10.9416 8.44852C12.6098 4.82581 11.2788 2.66028 10.824 1.1544C10.6666 0.633459 10.5678 -0.302776 11.6475 0.095577C12.7478 0.501577 15.6565 2.53769 17.1769 4.68381C19.3469 7.74675 20.1181 10.6838 20.1181 10.6838C20.1181 10.6838 20.8129 9.82146 21.0593 8.91911C21.3375 7.90016 21.3416 6.89099 22.2356 7.97805C23.0859 9.01181 24.3486 10.9545 25.0593 12.8015C26.3498 16.1555 25.9886 19.3893 25.9886 19.3893Z" fill="url(#paint0_linear_2160_5348)"/>
<path fill-rule="evenodd" clip-rule="evenodd" d="M14.942 29.9778C10.7186 29.9778 7.29492 26.5542 7.29492 22.3308C7.29492 19.7824 8.32186 18.2353 10.4592 16.1371C11.8276 14.7937 13.1085 13.1437 13.6528 12.0202C13.76 11.799 14.0039 10.6464 14.9442 11.996C15.4375 12.7037 16.2108 13.9624 16.7067 15.0367C17.5615 16.8888 17.7655 18.6837 17.7655 18.6837C17.7655 18.6837 18.6033 18.1901 19.1773 16.919C19.3623 16.5094 19.7365 14.9586 20.7823 16.5091C21.5497 17.647 22.604 19.6929 22.589 22.3308C22.589 26.5542 19.1653 29.9778 14.942 29.9778Z" fill="#FC9502"/>
<path fill-rule="evenodd" clip-rule="evenodd" d="M15.0588 21.625C16.1471 21.625 16.1471 23.6402 17.5294 26.3309C18.4499 28.1225 17.0731 29.9779 15.0588 29.9779C13.0446 29.9779 12 28.3451 12 26.3309C12 24.3168 13.9706 21.625 15.0588 21.625Z" fill="#FCE202"/>
</g>
<defs>
<linearGradient id="paint0_linear_2160_5348" x1="14.9582" y1="30" x2="14.9582" y2="0.022165" gradientUnits="userSpaceOnUse">
<stop stop-color="#FF4C0D"/>
<stop offset="1" stop-color="#FC9502"/>
</linearGradient>
<clipPath id="clip0_2160_5348">
<rect width="30" height="30" fill="white"/>
</clipPath>
</defs>
</svg>
