<svg width="40" height="40" viewBox="0 0 40 40" fill="none" xmlns="http://www.w3.org/2000/svg">
    <g clip-path="url(#clip0_2184_10196)">
        <mask id="mask0_2184_10196" style="mask-type:luminance" maskUnits="userSpaceOnUse" x="0"
            y="0" width="40" height="40">
            <path d="M40 0H0V40H40V0Z" fill="white" />
        </mask>
        <g mask="url(#mask0_2184_10196)">
            <path
                d="M20.0006 14.4111C17.5456 14.4111 15.5469 16.9174 15.5469 19.9999C15.5469 23.0824 17.5469 25.5887 20.0006 25.5887C22.4544 25.5887 24.4531 23.0811 24.4531 19.9999C24.4531 16.9186 22.4556 14.4111 20.0006 14.4111ZM20.0006 24.7224C18.0231 24.7224 16.4144 22.5974 16.4144 19.9999C16.4144 17.4024 18.0231 15.2774 20.0006 15.2774C21.9781 15.2774 23.5868 17.4024 23.5868 19.9999C23.5868 22.5974 21.9781 24.7224 20.0006 24.7224Z"
                fill="white" />
            <path
                d="M21.534 19.6825C21.3858 19.5466 21.2132 19.4402 21.0252 19.3687C20.8352 19.2962 20.5802 19.2163 20.2602 19.1288V17.5175C20.4108 17.5598 20.5473 17.6418 20.6554 17.7548C20.7636 17.8678 20.8395 18.0077 20.8752 18.16C20.8927 18.277 20.9524 18.3835 21.0432 18.4594C21.134 18.5352 21.2495 18.575 21.3677 18.5712C21.4314 18.5721 21.4946 18.5601 21.5535 18.5358C21.6124 18.5115 21.6657 18.4755 21.7102 18.43C21.7553 18.3866 21.791 18.3346 21.8153 18.277C21.8395 18.2194 21.8518 18.1575 21.8515 18.095C21.8477 17.9618 21.8153 17.8309 21.7565 17.7113C21.6877 17.5632 21.5971 17.4262 21.4877 17.305C21.3479 17.1371 21.1706 17.0044 20.9702 16.9175C20.7435 16.825 20.5042 16.7673 20.2602 16.7462V16.3287C20.2602 16.1162 20.1765 16.0112 20.0102 16.0112C19.844 16.0112 19.7602 16.1187 19.7602 16.3362V16.7462C19.305 16.7615 18.8701 16.9388 18.534 17.2462C18.3015 17.5054 18.1566 17.8312 18.1195 18.1773C18.0825 18.5235 18.1553 18.8725 18.3277 19.175C18.4689 19.3884 18.6638 19.5608 18.8927 19.675C19.1709 19.8094 19.4614 19.9166 19.7602 19.995V21.7963C19.6073 21.757 19.465 21.684 19.344 21.5825C19.2451 21.4978 19.1654 21.3929 19.1102 21.275C19.0407 21.1163 18.9798 20.954 18.9277 20.7888C18.9003 20.6956 18.8416 20.6148 18.7615 20.56C18.6736 20.5039 18.5708 20.4755 18.4665 20.4787C18.3993 20.4771 18.3324 20.4895 18.2702 20.5151C18.208 20.5407 18.1518 20.579 18.1052 20.6275C18.0597 20.6707 18.0232 20.7226 17.9981 20.7801C17.973 20.8377 17.9597 20.8997 17.959 20.9625C17.9608 21.1392 17.9978 21.3139 18.0677 21.4762C18.1487 21.6616 18.2621 21.8309 18.4027 21.9762C18.5643 22.1448 18.7559 22.2818 18.9677 22.38C19.218 22.4954 19.4859 22.5677 19.7602 22.5938V23.6388C19.7538 23.7302 19.7732 23.8216 19.8165 23.9025C19.8389 23.9326 19.8689 23.9562 19.9033 23.9711C19.9377 23.986 19.9755 23.9917 20.0127 23.9875C20.052 23.9927 20.0919 23.9855 20.1268 23.9669C20.1618 23.9483 20.1901 23.9192 20.2077 23.8837C20.2434 23.7763 20.2587 23.6631 20.2527 23.55V22.5862C20.5897 22.5646 20.9171 22.4649 21.209 22.295C21.465 22.1455 21.6758 21.9296 21.819 21.67C21.9562 21.4158 22.0275 21.1313 22.0265 20.8425C22.0303 20.6199 21.9877 20.399 21.9015 20.1937C21.8179 19.9985 21.6924 19.8239 21.534 19.6825ZM19.7677 18.985C19.5785 18.9239 19.4024 18.8277 19.249 18.7012C19.1374 18.5687 19.0771 18.4005 19.0792 18.2273C19.0813 18.054 19.1455 17.8873 19.2602 17.7575C19.4096 17.639 19.5827 17.5537 19.7677 17.5075V18.985ZM20.864 21.5187C20.7022 21.6862 20.4902 21.7963 20.2602 21.8325V20.135C20.4825 20.1972 20.6899 20.3035 20.8702 20.4475C20.9407 20.514 20.9957 20.5951 21.0313 20.6852C21.0669 20.7753 21.0824 20.872 21.0765 20.9687C21.0789 21.1726 21.0028 21.3695 20.864 21.5187Z"
                fill="white" />
            <path
                d="M38.3853 7.96875H1.61523C1.28371 7.96875 0.965789 8.10046 0.731369 8.33488C0.496949 8.56931 0.365234 8.88723 0.365234 9.21875V30.7812C0.365234 31.1128 0.496949 31.4307 0.731369 31.6651C0.965789 31.8995 1.28371 32.0312 1.61523 32.0312H38.3853C38.7168 32.0312 39.0347 31.8995 39.2691 31.6651C39.5035 31.4307 39.6353 31.1128 39.6353 30.7812V9.21875C39.6353 8.88723 39.5035 8.56931 39.2691 8.33488C39.0347 8.10046 38.7168 7.96875 38.3853 7.96875ZM37.1353 29.5312H2.86523V10.4688H37.1353V29.5312Z"
                fill="white" />
            <path
                d="M4.63477 28.2336H35.3647C35.5305 28.2336 35.6895 28.1678 35.8067 28.0506C35.9239 27.9333 35.9897 27.7744 35.9897 27.6086V12.3911C35.9897 12.2254 35.9239 12.0664 35.8067 11.9492C35.6895 11.832 35.5305 11.7661 35.3647 11.7661H4.63477C4.46901 11.7661 4.31004 11.832 4.19283 11.9492C4.07562 12.0664 4.00977 12.2254 4.00977 12.3911V27.6086C4.00977 27.7744 4.07562 27.9333 4.19283 28.0506C4.31004 28.1678 4.46901 28.2336 4.63477 28.2336ZM34.7397 22.3949C33.571 22.5345 32.4831 23.0628 31.6507 23.895C30.8183 24.7272 30.2897 25.8149 30.1497 26.9836H9.84976C9.70982 25.8149 9.1812 24.7272 8.34879 23.895C7.51639 23.0628 6.42849 22.5345 5.25977 22.3949V17.7186C6.44777 17.5764 7.55156 17.0327 8.38835 16.1775C9.22514 15.3223 9.74472 14.2069 9.86102 13.0161H30.1497C30.2897 14.1848 30.8183 15.2726 31.6507 16.1048C32.4831 16.9369 33.571 17.4653 34.7397 17.6049V22.3949ZM5.25977 23.6449C6.09792 23.7769 6.87266 24.1712 7.47275 24.771C8.07284 25.3709 8.46741 26.1455 8.59976 26.9836H5.25977V23.6449ZM31.3997 26.9836C31.5321 26.1455 31.9267 25.3709 32.5268 24.771C33.1269 24.1712 33.9016 23.7769 34.7397 23.6449V26.9836H31.3997ZM34.7397 16.3586C33.9016 16.2266 33.1269 15.8323 32.5268 15.2325C31.9267 14.6326 31.5321 13.858 31.3997 13.0199H34.7397V16.3586ZM8.61475 13.0199C8.5046 13.8803 8.11846 14.6819 7.51425 15.3044C6.91004 15.9268 6.12031 16.3367 5.2635 16.4724V13.0199H8.61475Z"
                fill="white" />
        </g>
    </g>
    <defs>
        <clipPath id="clip0_2184_10196">
            <rect width="40" height="40" fill="white" />
        </clipPath>
    </defs>
</svg>
