<svg width="15" height="15" viewBox="0 0 15 15" fill="none" xmlns="http://www.w3.org/2000/svg">
<path d="M0 1.40625V13.5938H15V1.40625H0ZM6.67969 2.57812H8.32031V3.51562H6.67969V2.57812ZM2.69531 12.4219H1.05469V11.4844H2.69531V12.4219ZM2.69531 3.51562H1.05469V2.57812H2.69531V3.51562ZM5.50781 12.4219H3.86719V11.4844H5.50781V12.4219ZM5.50781 3.51562H3.86719V2.57812H5.50781V3.51562ZM8.32031 12.4219H6.67969V11.4844H8.32031V12.4219ZM9.11684 7.55446L6.41695 9.16626C6.39727 9.17771 6.37301 9.17815 6.35332 9.16673C6.33363 9.1553 6.32127 9.13468 6.32127 9.11133V7.5V5.88867C6.32127 5.86579 6.33363 5.84473 6.35332 5.83374C6.37301 5.82229 6.39727 5.82275 6.41695 5.83421L9.11684 7.44601C9.13605 7.45699 9.14751 7.47806 9.14751 7.50003C9.14748 7.52244 9.13605 7.54304 9.11684 7.55446ZM11.1328 12.4219H9.49219V11.4844H11.1328V12.4219ZM11.1328 3.51562H9.49219V2.57812H11.1328V3.51562ZM13.9453 12.4219H12.3047V11.4844H13.9453V12.4219ZM13.9453 3.51562H12.3047V2.57812H13.9453V3.51562Z" fill="white"/>
</svg>
