<svg width="13" height="13" viewBox="0 0 13 13" fill="none" xmlns="http://www.w3.org/2000/svg">
<g clip-path="url(#clip0_2145_1749)">
<path fill-rule="evenodd" clip-rule="evenodd" d="M7.71875 5.69238C6.59425 5.69238 5.68303 4.78075 5.68303 3.65625C5.68303 2.53175 6.59425 1.62054 7.71875 1.62054C8.84325 1.62054 9.75447 2.53175 9.75447 3.65625C9.75447 4.78075 8.84325 5.69238 7.71875 5.69238ZM2.4375 5.6875C1.54009 5.6875 0.8125 4.95991 0.8125 4.0625C0.8125 3.16509 1.54009 2.4375 2.4375 2.4375C3.33491 2.4375 4.0625 3.16509 4.0625 4.0625C4.0625 4.95991 3.33491 5.6875 2.4375 5.6875ZM12.1875 5.6875L9.75 7.3125C9.75 6.81931 9.52575 6.383 9.17881 6.08522C10.0043 5.58716 10.5625 4.69056 10.5625 3.65625C10.5625 2.08569 9.28931 0.8125 7.71875 0.8125C6.14819 0.8125 4.875 2.08569 4.875 3.65625C4.875 4.45331 5.20487 5.17116 5.73259 5.6875H4.24247C4.63125 5.25566 4.875 4.68975 4.875 4.0625C4.875 2.71659 3.78341 1.625 2.4375 1.625C1.09159 1.625 0 2.71659 0 4.0625C0 4.79741 0.3315 5.44781 0.845813 5.89509C0.344094 6.17134 0 6.69906 0 7.3125V10.5625C0 11.4599 0.727594 12.1875 1.625 12.1875H8.125C9.02241 12.1875 9.75 11.4599 9.75 10.5625L12.1875 12.1875C12.636 12.1875 13 11.8235 13 11.375V6.5C13 6.0515 12.636 5.6875 12.1875 5.6875Z" fill="white"/>
</g>
<defs>
<clipPath id="clip0_2145_1749">
<rect width="13" height="13" rx="6.5" fill="white"/>
</clipPath>
</defs>
</svg>
