<svg width="60" height="60" viewBox="0 0 60 60" fill="none" xmlns="http://www.w3.org/2000/svg">
    <path
        d="M45.2994 26.6438L45.1869 26.25L44.9994 26.025L44.7744 25.7625C44.6169 25.598 44.4277 25.4671 44.2183 25.3777C44.0088 25.2883 43.7834 25.2422 43.5557 25.2422C43.328 25.2422 43.1026 25.2883 42.8931 25.3777C42.6837 25.4671 42.4945 25.598 42.3369 25.7625L42.1119 26.025L41.9619 26.325C41.9539 26.4374 41.9539 26.5502 41.9619 26.6625C41.945 26.7744 41.945 26.8881 41.9619 27C41.956 27.224 41.9942 27.447 42.0744 27.6563C42.162 27.8662 42.2893 28.0572 42.4494 28.2188C42.6064 28.3844 42.7987 28.5126 43.0119 28.5938C43.2269 28.6787 43.4558 28.7232 43.6869 28.725H44.0244L44.3619 28.6125L44.6619 28.4625C44.7305 28.3592 44.7812 28.2451 44.8119 28.125C44.9776 27.9681 45.1058 27.7758 45.1869 27.5625C45.2736 27.3546 45.3182 27.1315 45.3182 26.9063C45.317 26.8185 45.3107 26.7308 45.2994 26.6438Z"
        fill="#FFD914" />
    <path
        d="M48.7502 19.7248L48.6377 19.3873L48.4877 19.0873L48.2627 18.7498C48.1052 18.5853 47.916 18.4544 47.7066 18.365C47.4971 18.2756 47.2717 18.2295 47.044 18.2295C46.8162 18.2295 46.5908 18.2756 46.3814 18.365C46.1719 18.4544 45.9828 18.5853 45.8252 18.7498L45.6002 19.0123L45.4502 19.3123C45.4422 19.4247 45.4422 19.5375 45.4502 19.6498C45.4333 19.7617 45.4333 19.8755 45.4502 19.9873C45.4443 20.2113 45.4825 20.4343 45.5627 20.6436C45.6503 20.8535 45.7776 21.0445 45.9377 21.2061C46.0947 21.3717 46.2869 21.4999 46.5002 21.5811C46.7152 21.6661 46.9441 21.7105 47.1752 21.7123H47.5127L47.8502 21.5998L48.1502 21.4498C48.249 21.389 48.3376 21.3131 48.4127 21.2248C48.5784 21.0679 48.7066 20.8756 48.7877 20.6623C48.8108 20.4617 48.7981 20.2585 48.7502 20.0623C48.7585 19.95 48.7585 19.8372 48.7502 19.7248Z"
        fill="#FFD914" />
    <path
        d="M40.1057 11.0624L39.9932 10.7249L39.8432 10.4249L39.6182 10.1624C39.4607 9.99793 39.2715 9.86703 39.062 9.77761C38.8526 9.68819 38.6272 9.64209 38.3994 9.64209C38.1717 9.64209 37.9463 9.68819 37.7369 9.77761C37.5274 9.86703 37.3382 9.99793 37.1807 10.1624L36.9557 10.4249L36.8057 10.7249C36.7977 10.8373 36.7977 10.9501 36.8057 11.0624C36.7887 11.1743 36.7887 11.2881 36.8057 11.3999C36.7997 11.6239 36.838 11.8469 36.9182 12.0562C37.0057 12.2661 37.1331 12.4571 37.2932 12.6187C37.4501 12.7843 37.6424 12.9125 37.8557 12.9937C38.0707 13.0786 38.2995 13.1231 38.5307 13.1249H38.8682L39.2057 13.0124L39.3744 12.8437C39.4732 12.7829 39.5618 12.707 39.6369 12.6187C39.8026 12.4617 39.9308 12.2695 40.0119 12.0562C40.0986 11.8482 40.1432 11.6252 40.1432 11.3999C40.1391 11.2866 40.1265 11.1738 40.1057 11.0624Z"
        fill="#FFD914" />
    <path
        d="M33.1694 17.9814L33.0569 17.6439L32.9069 17.3439L32.6819 17.0814C32.5243 16.9169 32.3352 16.786 32.1257 16.6966C31.9162 16.6071 31.6909 16.561 31.4631 16.561C31.2354 16.561 31.01 16.6071 30.8005 16.6966C30.5911 16.786 30.4019 16.9169 30.2444 17.0814L30.0006 17.3626L29.8506 17.6626C29.8426 17.775 29.8426 17.8878 29.8506 18.0001C29.8336 18.112 29.8336 18.2257 29.8506 18.3376C29.8447 18.5616 29.8829 18.7846 29.9631 18.9939C30.0507 19.2038 30.178 19.3948 30.3381 19.5564C30.4951 19.722 30.6873 19.8502 30.9006 19.9314C31.1156 20.0163 31.3445 20.0608 31.5756 20.0626H31.9131L32.2506 19.9501L32.5506 19.8001C32.6494 19.7393 32.738 19.6634 32.8131 19.5751C32.9788 19.4182 33.107 19.2259 33.1881 19.0126C33.2748 18.8047 33.3194 18.5816 33.3194 18.3564C33.2805 18.2272 33.2303 18.1017 33.1694 17.9814Z"
        fill="#FFD914" />
    <path
        d="M22.7807 11.0627L22.6682 10.7252L22.4994 10.444L22.2744 10.1815C22.1169 10.017 21.9277 9.88608 21.7183 9.79665C21.5088 9.70723 21.2834 9.66113 21.0557 9.66113C20.828 9.66113 20.6026 9.70723 20.3931 9.79665C20.1837 9.88608 19.9945 10.017 19.8369 10.1815L19.6119 10.444L19.4619 10.744C19.4539 10.8563 19.4539 10.9691 19.4619 11.0815C19.445 11.1933 19.445 11.3071 19.4619 11.419C19.456 11.643 19.4942 11.866 19.5744 12.0752C19.662 12.2851 19.7893 12.4762 19.9494 12.6377C20.1064 12.8034 20.2987 12.9316 20.5119 13.0127C20.7269 13.0977 20.9558 13.1422 21.1869 13.144H21.5244L21.8619 13.0315L22.1619 12.8815C22.2607 12.8207 22.3493 12.7447 22.4244 12.6565C22.5901 12.4995 22.7183 12.3072 22.7994 12.094C22.8861 11.886 22.9307 11.663 22.9307 11.4377C22.8918 11.3085 22.8417 11.183 22.7807 11.0627Z"
        fill="#FFD914" />
    <path
        d="M32.8508 45.7875C32.9165 45.501 32.9079 45.2025 32.8259 44.9203C32.7439 44.6381 32.5911 44.3816 32.3821 44.175L15.2633 27.0375C15.0556 26.8266 14.7971 26.6727 14.5126 26.5906C14.2282 26.5085 13.9274 26.501 13.6393 26.5688C13.3511 26.6366 13.0852 26.7774 12.8672 26.9777C12.6492 27.178 12.4865 27.4311 12.3946 27.7125L3.75082 53.4187C3.64516 53.7245 3.62764 54.0539 3.70026 54.3692C3.77288 54.6845 3.9327 54.973 4.16149 55.2018C4.39028 55.4306 4.6788 55.5904 4.99409 55.663C5.30939 55.7356 5.63876 55.7181 5.94457 55.6125L31.6321 47.0437C31.9288 46.9621 32.1983 46.8025 32.4126 46.5816C32.6269 46.3608 32.7782 46.0865 32.8508 45.7875ZM18.9196 47.6625L11.7946 40.5187L12.7321 37.7062L21.7508 46.725L18.9196 47.6625ZM10.5571 44.1937L15.2446 48.8812L8.21332 51.225L10.5571 44.1937ZM25.4071 45.5062L13.9508 34.0312L14.7946 31.4812L27.9196 44.6062L25.4071 45.5062Z"
        fill="#FFD914" />
    <path
        d="M36.0938 27.7873L36.9 23.081L41.6063 22.2748C41.9572 22.2142 42.2807 22.0465 42.5325 21.7947C42.7842 21.5429 42.9519 21.2194 43.0125 20.8685L43.8188 16.1623L48.525 15.356C48.7491 15.3179 48.9635 15.2359 49.1559 15.1149C49.3483 14.9939 49.515 14.8362 49.6464 14.6508C49.7779 14.4653 49.8715 14.2558 49.922 14.0342C49.9725 13.8126 49.9788 13.5832 49.9407 13.3591C49.9025 13.1351 49.8206 12.9207 49.6996 12.7283C49.5786 12.5359 49.4208 12.3692 49.2354 12.2378C49.05 12.1063 48.8405 12.0127 48.6189 11.9622C48.3973 11.9117 48.1679 11.9054 47.9438 11.9435L42.0375 12.956C41.6867 13.0166 41.3631 13.1843 41.1114 13.4361C40.8596 13.6879 40.6919 14.0114 40.6313 14.3623L39.825 19.0685L35.1188 19.8748C34.7679 19.9354 34.4444 20.1031 34.1926 20.3548C33.9408 20.6066 33.7731 20.9301 33.7125 21.281L32.9063 25.9873L28.125 26.8123C27.6892 26.8757 27.2942 27.1034 27.0209 27.4487C26.7475 27.794 26.6166 28.2308 26.655 28.6695C26.6934 29.1083 26.8981 29.5157 27.2272 29.8084C27.5563 30.101 27.9848 30.2567 28.425 30.2435H28.725L34.6313 29.231C34.9977 29.1791 35.3377 29.0107 35.601 28.7507C35.8644 28.4907 36.0371 28.153 36.0938 27.7873Z"
        fill="#FFD914" />
    <path
        d="M55.1254 29.756L50.1379 27.881C49.7512 27.7338 49.3245 27.7304 48.9356 27.8715C48.5467 28.0126 48.2214 28.2888 48.0191 28.6498L46.1441 32.006L42.5441 30.656C42.1575 30.5088 41.7308 30.5054 41.3419 30.6465C40.9529 30.7876 40.6277 31.0638 40.4254 31.4248L38.5504 34.7623L34.9504 33.4123C34.7374 33.3335 34.511 33.2974 34.2841 33.3061C34.0571 33.3148 33.8341 33.3681 33.6278 33.463C33.4215 33.5579 33.2359 33.6925 33.0816 33.8591C32.9273 34.0258 32.8073 34.2212 32.7285 34.4341C32.6497 34.6471 32.6137 34.8735 32.6224 35.1005C32.6311 35.3274 32.6844 35.5504 32.7793 35.7567C32.8742 35.963 33.0088 36.1486 33.1754 36.3029C33.342 36.4572 33.5374 36.5772 33.7504 36.656L38.7379 38.531C39.1245 38.6783 39.5512 38.6816 39.9402 38.5405C40.3291 38.3994 40.6544 38.1232 40.8566 37.7623L42.7316 34.406L46.3316 35.756C46.7183 35.9033 47.145 35.9066 47.5339 35.7655C47.9229 35.6244 48.2481 35.3482 48.4504 34.9873L50.3254 31.631L53.9254 32.981C54.1384 33.061 54.365 33.0983 54.5924 33.0908C54.8198 33.0832 55.0435 33.0309 55.2507 32.9369C55.4579 32.8429 55.6445 32.7089 55.8 32.5428C55.9554 32.3766 56.0766 32.1815 56.1566 31.9685C56.2367 31.7555 56.274 31.5289 56.2664 31.3015C56.2588 31.0741 56.2065 30.8504 56.1125 30.6432C56.0185 30.436 55.8846 30.2494 55.7184 30.0939C55.5523 29.9385 55.3571 29.8173 55.1441 29.7373L55.1254 29.756Z"
        fill="#FFD914" />
    <path
        d="M27.2625 20.6251L25.95 17.0064L29.3063 15.1314C29.6663 14.9327 29.9435 14.6119 30.0879 14.2268C30.2323 13.8418 30.2344 13.4178 30.0938 13.0314L28.8 9.37514L32.1563 7.50014C32.5591 7.27885 32.8575 6.90661 32.9858 6.46532C33.1142 6.02402 33.062 5.54981 32.8407 5.14702C32.6194 4.74422 32.2471 4.44583 31.8058 4.31748C31.3646 4.18914 30.8903 4.24135 30.4875 4.46264L25.8375 7.08764C25.4775 7.28635 25.2003 7.60715 25.0559 7.99219C24.9115 8.37724 24.9094 8.8012 25.05 9.18764L26.3625 12.7876L23.0063 14.6626C22.6463 14.8614 22.3691 15.1821 22.2247 15.5672C22.0803 15.9522 22.0782 16.3762 22.2188 16.7626L23.5313 20.3814L20.1563 22.2564C19.9568 22.366 19.7809 22.5137 19.6386 22.6913C19.4963 22.8689 19.3903 23.0727 19.3268 23.2912C19.1984 23.7325 19.2506 24.2067 19.4719 24.6095C19.6932 25.0123 20.0654 25.3107 20.5067 25.4391C20.948 25.5674 21.4222 25.5152 21.825 25.2939L26.4938 22.7251C26.8505 22.5234 27.1237 22.2014 27.2646 21.8166C27.4054 21.4318 27.4047 21.0094 27.2625 20.6251Z"
        fill="#FFD914" />
    <path
        d="M14.1555 18.1313C13.9374 18.1939 13.7338 18.2989 13.5564 18.4402C13.379 18.5816 13.2312 18.7565 13.1215 18.9551C13.0117 19.1536 12.9423 19.3718 12.917 19.5973C12.8917 19.8227 12.9112 20.0509 12.9742 20.2688L13.6867 22.7251C13.7917 23.0816 14.0091 23.3946 14.3064 23.6176C14.6037 23.8406 14.9651 23.9616 15.3367 23.9626C15.4984 23.9859 15.6625 23.9859 15.8242 23.9626C16.0423 23.9 16.2458 23.795 16.4233 23.6537C16.6007 23.5124 16.7485 23.3374 16.8582 23.1388C16.9679 22.9403 17.0374 22.7221 17.0627 22.4966C17.088 22.2712 17.0685 22.043 17.0055 21.8251L16.293 19.3688C16.2364 19.1457 16.1358 18.9362 15.9971 18.7525C15.8583 18.5689 15.6842 18.4148 15.4851 18.2995C15.2859 18.1842 15.0656 18.1099 14.8373 18.081C14.6089 18.0521 14.3771 18.0692 14.1555 18.1313Z"
        fill="#FFD914" />
    <path
        d="M27.4882 36.094C27.8445 36.0929 28.1916 35.9815 28.482 35.7752L29.4945 35.0627C29.6804 34.931 29.8385 34.764 29.9599 34.5711C30.0812 34.3783 30.1634 34.1634 30.2017 33.9388C30.24 33.7142 30.2337 33.4842 30.1831 33.2621C30.1326 33.0399 30.0387 32.8299 29.907 32.644C29.7753 32.4581 29.6082 32.3 29.4154 32.1786C29.2225 32.0573 29.0077 31.9751 28.7831 31.9368C28.5585 31.8985 28.3285 31.9048 28.1063 31.9554C27.8842 32.0059 27.6742 32.0998 27.4882 32.2315L26.4757 32.944C26.1696 33.1528 25.9389 33.4546 25.8176 33.8047C25.6964 34.1549 25.6911 34.5347 25.8026 34.8881C25.9141 35.2415 26.1364 35.5496 26.4366 35.7668C26.7368 35.9839 27.099 36.0987 27.4695 36.094H27.4882Z"
        fill="#FFD914" />
    <path
        d="M20.3441 27.2249C20.0212 27.5484 19.8398 27.9867 19.8398 28.4437C19.8398 28.9007 20.0212 29.339 20.3441 29.6624L21.0566 30.3749C21.2141 30.5458 21.4046 30.6831 21.6165 30.7786C21.8284 30.8741 22.0575 30.9257 22.2898 30.9304C22.5222 30.9352 22.7532 30.8929 22.9688 30.8061C23.1845 30.7194 23.3803 30.5899 23.5447 30.4256C23.7091 30.2612 23.8385 30.0653 23.9253 29.8497C24.012 29.634 24.0543 29.4031 24.0496 29.1707C24.0449 28.9383 23.9932 28.7093 23.8977 28.4974C23.8023 28.2854 23.665 28.095 23.4941 27.9374L22.7816 27.2249C22.4582 26.9021 22.0198 26.7207 21.5628 26.7207C21.1058 26.7207 20.6675 26.9021 20.3441 27.2249Z"
        fill="#FFD914" />
    <path
        d="M39.375 44.7189H39.675C39.9027 44.7325 40.1309 44.701 40.3465 44.6264C40.5621 44.5517 40.7609 44.4353 40.9316 44.2838C41.1022 44.1324 41.2413 43.9488 41.341 43.7435C41.4406 43.5383 41.4989 43.3154 41.5125 43.0877C41.526 42.8599 41.4946 42.6317 41.4199 42.4161C41.3453 42.2005 41.2289 42.0017 41.0774 41.8311C40.9259 41.6604 40.7423 41.5213 40.5371 41.4216C40.3318 41.322 40.109 41.2637 39.8812 41.2502L35.625 40.5939C35.4009 40.5557 35.1715 40.5621 34.9499 40.6126C34.7283 40.6631 34.5188 40.7567 34.3333 40.8882C34.1479 41.0196 33.9902 41.1863 33.8692 41.3787C33.7482 41.5711 33.6663 41.7855 33.6281 42.0095C33.5899 42.2336 33.5963 42.463 33.6468 42.6846C33.6972 42.9062 33.7909 43.1157 33.9223 43.3012C34.0538 43.4866 34.2205 43.6443 34.4129 43.7653C34.6053 43.8863 34.8196 43.9682 35.0437 44.0064L39.375 44.7189Z"
        fill="#FFD914" />
</svg>
