<svg width="45" height="45" viewBox="0 0 45 45" fill="none" xmlns="http://www.w3.org/2000/svg">
<path fill-rule="evenodd" clip-rule="evenodd" d="M37.5 1.875C40.6067 1.875 43.125 4.39341 43.125 7.5V37.5C43.125 40.6067 40.6067 43.125 37.5 43.125H7.5C4.39341 43.125 1.875 40.6067 1.875 37.5V7.5C1.875 4.39341 4.39341 1.875 7.5 1.875H37.5ZM37.5 5.625C38.5356 5.625 39.375 6.46448 39.375 7.5V37.5C39.375 38.5356 38.5356 39.375 37.5 39.375H28.125V26.2498H32.0179C32.8249 26.2498 33.5413 25.7334 33.7967 24.9677L34.6273 22.4758C34.9309 21.5651 34.2531 20.6248 33.2932 20.6248H28.125V16.8748C28.125 15.9373 29.0625 14.9998 30 14.9998H33.75C34.7856 14.9998 35.625 14.1604 35.625 13.1248V11.8386C35.625 11.233 35.2382 10.6899 34.6524 10.5354C32.1947 9.88678 30 9.88678 30 9.88678C25.3125 9.88678 22.5 13.1248 22.5 15.9373V20.6248H18.75C17.7145 20.6248 16.875 21.4643 16.875 22.4998V24.3748C16.875 25.4104 17.7145 26.2498 18.75 26.2498H22.5V39.375H7.5C6.46448 39.375 5.625 38.5356 5.625 37.5V7.5C5.625 6.46448 6.46448 5.625 7.5 5.625H37.5Z" fill="white"/>
</svg>
