<svg width="46" height="46" viewBox="0 0 46 46" fill="none" xmlns="http://www.w3.org/2000/svg">
    <path fill-rule="evenodd" clip-rule="evenodd"
        d="M23 34.25C29.2132 34.25 34.25 29.2132 34.25 23C34.25 16.7868 29.2132 11.75 23 11.75C16.7868 11.75 11.75 16.7868 11.75 23C11.75 29.2132 16.7868 34.25 23 34.25ZM23 30.5C27.1421 30.5 30.5 27.1421 30.5 23C30.5 18.8579 27.1421 15.5 23 15.5C18.8579 15.5 15.5 18.8579 15.5 23C15.5 27.1421 18.8579 30.5 23 30.5Z"
        fill="white" />
    <path
        d="M34.25 9.875C33.2144 9.875 32.375 10.7145 32.375 11.75C32.375 12.7855 33.2144 13.625 34.25 13.625C35.2856 13.625 36.125 12.7855 36.125 11.75C36.125 10.7145 35.2856 9.875 34.25 9.875Z"
        fill="white" />
    <path fill-rule="evenodd" clip-rule="evenodd"
        d="M3.60117 8.51761C2.375 10.9241 2.375 14.0744 2.375 20.375V25.625C2.375 31.9256 2.375 35.0759 3.60117 37.4823C4.67975 39.5992 6.40077 41.3203 8.51761 42.3988C10.9241 43.625 14.0744 43.625 20.375 43.625H25.625C31.9256 43.625 35.0759 43.625 37.4823 42.3988C39.5992 41.3203 41.3203 39.5992 42.3988 37.4823C43.625 35.0759 43.625 31.9256 43.625 25.625V20.375C43.625 14.0744 43.625 10.9241 42.3988 8.51761C41.3203 6.40077 39.5992 4.67975 37.4823 3.60117C35.0759 2.375 31.9256 2.375 25.625 2.375H20.375C14.0744 2.375 10.9241 2.375 8.51761 3.60117C6.40077 4.67975 4.67975 6.40077 3.60117 8.51761ZM25.625 6.125H20.375C17.1628 6.125 14.9792 6.12792 13.2914 6.26581C11.6473 6.40014 10.8066 6.64361 10.2201 6.94244C8.80886 7.66151 7.66151 8.80886 6.94244 10.2201C6.64361 10.8066 6.40014 11.6473 6.26581 13.2914C6.12792 14.9792 6.125 17.1628 6.125 20.375V25.625C6.125 28.8372 6.12792 31.0207 6.26581 32.7086C6.40014 34.3528 6.64361 35.1935 6.94244 35.78C7.66151 37.1911 8.80886 38.3384 10.2201 39.0575C10.8066 39.3564 11.6473 39.5999 13.2914 39.7342C14.9792 39.872 17.1628 39.875 20.375 39.875H25.625C28.8372 39.875 31.0207 39.872 32.7086 39.7342C34.3528 39.5999 35.1935 39.3564 35.78 39.0575C37.1911 38.3384 38.3384 37.1911 39.0575 35.78C39.3564 35.1935 39.5999 34.3528 39.7342 32.7086C39.872 31.0207 39.875 28.8372 39.875 25.625V20.375C39.875 17.1628 39.872 14.9792 39.7342 13.2914C39.5999 11.6473 39.3564 10.8066 39.0575 10.2201C38.3384 8.80886 37.1911 7.66151 35.78 6.94244C35.1935 6.64361 34.3528 6.40014 32.7086 6.26581C31.0207 6.12792 28.8372 6.125 25.625 6.125Z"
        fill="white" />
</svg>
