<svg width="45" height="45" viewBox="0 0 45 45" fill="none" xmlns="http://www.w3.org/2000/svg">
<path d="M31.1089 14.1188C31.1173 14.1188 31.1286 14.1188 31.1398 14.1188C31.4337 14.1188 31.7065 14.2102 31.9301 14.3677L31.9259 14.3648C32.089 14.5069 32.1987 14.7066 32.2254 14.9316V14.9358C32.2536 15.1073 32.269 15.3042 32.269 15.5053C32.269 15.5967 32.2662 15.6867 32.2592 15.7767V15.7641C31.9428 19.0955 30.5703 27.1744 29.8728 30.9037C29.5775 32.483 28.9967 33.0117 28.4342 33.0623C27.2121 33.1763 26.284 32.2552 25.1 31.4789C23.2465 30.2625 22.1989 29.5059 20.4003 28.3205C18.3204 26.9522 19.669 26.197 20.8531 24.968C21.1639 24.6445 26.5512 19.7437 26.6567 19.2994C26.6623 19.2727 26.6651 19.2431 26.6651 19.2122C26.6651 19.1025 26.6243 19.0027 26.5582 18.9267C26.4851 18.8789 26.3937 18.8522 26.2981 18.8522C26.2348 18.8522 26.1743 18.8648 26.1181 18.8859L26.1209 18.8845C25.9353 18.9267 22.9746 20.8833 17.239 24.7542C16.6132 25.2478 15.8229 25.56 14.9623 25.5966H14.9539C13.7346 25.4489 12.6279 25.1775 11.5775 24.7908L11.6815 24.8245C10.3625 24.3942 9.31481 24.1678 9.4048 23.4394C9.45262 23.0606 9.9748 22.673 10.9714 22.2764C17.1101 19.6017 21.2037 17.8388 23.2521 16.9875C25.512 15.788 28.1318 14.8008 30.8867 14.1609L31.1075 14.1173L31.1089 14.1188ZM22.4014 1.44141C10.7267 1.46953 1.27246 10.9406 1.27246 22.6195C1.27246 34.3153 10.7534 43.7977 22.4506 43.7977C34.1478 43.7977 43.6287 34.3167 43.6287 22.6195C43.6287 10.9406 34.1745 1.46953 22.5026 1.44141H22.4998C22.467 1.44141 22.4342 1.44141 22.4014 1.44141Z" fill="white"/>
</svg>
