<svg width="45" height="45" viewBox="0 0 45 45" fill="none" xmlns="http://www.w3.org/2000/svg">
<path d="M23.4224 1.44702C25.7244 1.41187 28.0096 1.43015 30.2933 1.41187C30.3693 4.26796 31.528 6.83858 33.3716 8.74265L33.3688 8.73983C35.353 10.5272 37.9349 11.6859 40.7812 11.8828L40.8205 11.8856V18.9675C38.1318 18.9 35.6033 18.2798 33.3238 17.2139L33.4391 17.2617C32.3366 16.7316 31.4043 16.1873 30.5183 15.5798L30.5915 15.6276C30.5746 20.7591 30.6083 25.8905 30.5563 31.0036C30.4115 33.6094 29.5452 35.9859 28.1558 37.9701L28.184 37.9266C25.8608 41.2537 22.0977 43.4376 17.8185 43.567H17.7988C17.6258 43.5755 17.4219 43.5797 17.2166 43.5797C14.7838 43.5797 12.5099 42.9019 10.5721 41.7248L10.6283 41.7572C7.10147 39.6351 4.66865 36.0042 4.21865 31.7812L4.21303 31.7236C4.17787 30.8447 4.161 29.9658 4.19615 29.1051C4.88521 22.3847 10.5158 17.1858 17.3601 17.1858C18.1293 17.1858 18.883 17.2519 19.6157 17.377L19.5369 17.3658C19.5721 19.9659 19.4666 22.5675 19.4666 25.1676C18.8718 24.9525 18.1855 24.8273 17.4697 24.8273C14.8429 24.8273 12.6083 26.5064 11.7815 28.8506L11.7688 28.8928C11.5818 29.4933 11.4735 30.1837 11.4735 30.8981C11.4735 31.1878 11.4918 31.4747 11.5255 31.7559L11.5227 31.7222C11.9896 34.5994 14.4562 36.7706 17.4304 36.7706C17.5162 36.7706 17.6005 36.7692 17.6849 36.765H17.6722C19.7296 36.7031 21.5155 35.5964 22.5252 33.9609L22.5393 33.9356C22.9147 33.4125 23.1721 32.7797 23.2579 32.092L23.2593 32.0723C23.4351 28.9266 23.3647 25.7991 23.3816 22.6533C23.3985 15.5714 23.3647 8.5064 23.4168 1.4428L23.4224 1.44702Z" fill="white"/>
</svg>
