<svg width="40" height="40" viewBox="0 0 40 40" fill="none" xmlns="http://www.w3.org/2000/svg">
<path d="M2.68343 0.0390625H6.27398L8.58679 7.15594H8.81046L11.0162 0.0390625H14.6375L10.4885 10.4561V17.8459H6.9246V10.7875L2.68343 0.0390625ZM15.0146 7.70758C15.0146 6.66273 15.4439 5.83234 16.3031 5.21242C17.1612 4.59258 18.3148 4.28266 19.7641 4.28266C21.0838 4.28266 22.1647 4.61016 23.0067 5.26312C23.8509 5.91609 24.2718 6.75625 24.2718 7.78555V14.7543C24.2718 15.9083 23.8576 16.8147 23.0321 17.4716C22.2056 18.1285 21.0672 18.458 19.6193 18.458C18.2241 18.458 17.1081 18.1187 16.2704 17.4405C15.4337 16.7621 15.0146 15.8498 15.0146 14.7016V7.70758ZM18.2968 14.955C18.2968 15.3273 18.4093 15.612 18.6369 15.8166C18.8641 16.0194 19.1881 16.1188 19.6097 16.1188C20.0419 16.1188 20.3855 16.0174 20.6394 15.8108C20.8937 15.6023 21.0215 15.3176 21.0215 14.955V7.60617C21.0215 7.3118 20.8909 7.07398 20.6316 6.89273C20.3724 6.71141 20.0317 6.61977 19.6097 6.61977C19.2212 6.61977 18.9044 6.71141 18.6618 6.89273C18.4181 7.07398 18.2968 7.3118 18.2968 7.60617V14.955ZM35.9364 4.49906V17.9921H32.7424V16.5028C32.1528 17.0526 31.5408 17.4696 30.9033 17.7582C30.2669 18.0428 29.648 18.187 29.0494 18.187C28.3108 18.187 27.7532 17.9862 27.3789 17.5847C27.0046 17.183 26.8175 16.5808 26.8175 15.7777V4.49906H30.0124V14.842C30.0124 15.1637 30.0797 15.3937 30.2132 15.5379C30.3478 15.6802 30.5641 15.7523 30.8634 15.7523C31.0991 15.7523 31.3965 15.6568 31.754 15.4677C32.1137 15.2787 32.443 15.037 32.7423 14.7426V4.49906H35.9364ZM32.9433 28.3798C32.7864 28.2063 32.5368 28.1167 32.1937 28.1167C31.8351 28.1167 31.5779 28.2063 31.4219 28.3798C31.266 28.5552 31.188 28.8457 31.188 29.2512V30.0913H33.1781V29.2512C33.1781 28.8457 33.1001 28.5552 32.9433 28.3798ZM23.5038 34.7053C23.6753 34.7755 23.8566 34.8086 24.0476 34.8086C24.3244 34.8086 24.5252 34.7423 24.6559 34.6059C24.7863 34.4713 24.8507 34.2472 24.8507 33.9392V29.0816C24.8507 28.7541 24.7708 28.5066 24.611 28.337C24.4501 28.1673 24.2154 28.0835 23.9112 28.0835C23.7504 28.0835 23.5916 28.1147 23.4345 28.1771C23.2776 28.2414 23.1227 28.3409 22.9697 28.4734V34.3641C23.153 34.524 23.3312 34.637 23.5038 34.7053ZM38.3195 24.4209C38.3195 22.0817 35.9169 20.185 32.9559 20.185C28.7319 20.0427 24.4094 19.9803 19.9995 19.988C15.5912 19.9802 11.2686 20.0426 7.04304 20.185C4.08359 20.185 1.68109 22.0816 1.68109 24.4209C1.50319 26.2707 1.42616 28.1225 1.43304 29.9744C1.42624 31.8262 1.50319 33.678 1.68109 35.5298C1.68109 37.867 4.08359 39.7636 7.04304 39.7636C11.2686 39.904 15.5912 39.9664 19.9995 39.9605C24.4094 39.9664 28.7319 39.904 32.9559 39.7636C35.9169 39.7636 38.3195 37.867 38.3195 35.5298C38.4969 33.678 38.5737 31.8262 38.5659 29.9744C38.5737 28.1225 38.4969 26.2707 38.3195 24.4209ZM9.47226 36.2082V36.3486H6.9353V36.2082V25.1284H4.31062V24.9901V23.2241V23.0857H12.0975V23.2241V24.9901V25.1284H9.47226V36.2082ZM18.497 26.6664V36.2082V36.3486H16.2446V36.2082V35.2784C15.8284 35.6741 15.3971 35.9723 14.9484 36.179C14.4986 36.3836 14.0629 36.487 13.6399 36.487C13.1194 36.487 12.7271 36.3427 12.463 36.0561C12.1983 35.7677 12.0662 35.3349 12.0662 34.7579V34.6175V26.6664V26.528H14.3197V26.6664V33.9489C14.3197 34.177 14.3665 34.3446 14.4605 34.446C14.5555 34.5493 14.7085 34.6 14.9195 34.6C15.0857 34.6 15.2948 34.5318 15.5482 34.3973C15.8006 34.2608 16.0326 34.0873 16.2446 33.8768V26.6664V26.528H18.497V26.6664ZM27.1694 28.9724V34.2023V34.3427C27.1694 35.0309 26.993 35.5571 26.6403 35.9236C26.2873 36.2862 25.7766 36.4694 25.11 36.4694C24.6694 36.4694 24.2778 36.3992 23.9326 36.2588C23.5867 36.1166 23.2661 35.8982 22.9698 35.6038V36.2081V36.3485H20.6959V36.2081V23.224V23.0856H22.9698V23.224V27.3097C23.2739 27.0134 23.5955 26.7892 23.9366 26.6372C24.2787 26.4832 24.6248 26.4052 24.9736 26.4052C25.6851 26.4052 26.2309 26.6119 26.6061 27.0252C26.9813 27.4384 27.1694 28.0407 27.1694 28.8322V28.9724ZM35.4968 29.2688V31.5943V31.7347H31.188V33.4207C31.188 33.9295 31.262 34.2823 31.4102 34.4792C31.5593 34.6762 31.8127 34.7755 32.1713 34.7755C32.5447 34.7755 32.8069 34.6917 32.9559 34.5241C33.1041 34.3584 33.1781 33.9899 33.1781 33.4207V32.8886V32.7483H35.4969V32.8886V33.4753V33.6156C35.4969 34.6078 35.2152 35.3545 34.65 35.8573C34.0855 36.3603 33.2425 36.6098 32.1207 36.6098C31.1119 36.6098 30.3187 36.3427 29.7387 35.8106C29.1598 35.2784 28.8694 34.5455 28.8694 33.6156V33.4753V29.2688V29.1304C28.8694 28.2902 29.188 27.606 29.8235 27.0758C30.4599 26.5475 31.2836 26.2824 32.2913 26.2824C33.3225 26.2824 34.1138 26.528 34.6676 27.0173C35.2192 27.5066 35.4969 28.2123 35.4969 29.1304V29.2688H35.4968Z" fill="white"/>
</svg>
