<svg width="25" height="25" viewBox="0 0 25 25" fill="none" xmlns="http://www.w3.org/2000/svg">
    <g clip-path="url(#clip0_2160_4979)">
        <path
            d="M23.8636 5.72256H21.8339C21.6679 6.13931 21.4231 6.52397 21.1076 6.85894C21.0824 6.88569 21.0577 6.91255 21.0316 6.93862C20.3508 7.61968 19.4445 7.99492 18.4797 7.99531C18.4792 7.99531 18.4784 7.99541 18.4783 7.99541L18.4728 7.99531H18.4727L18.4449 7.99507H15.2435L15.2437 7.99531L17.5296 10.2812C17.9733 10.7249 17.9734 11.4444 17.5296 11.8882C17.3078 12.1102 17.0169 12.2211 16.7262 12.2211C16.4354 12.2211 16.1445 12.1102 15.9227 11.8883L12.5 8.46572L9.07734 11.8882C8.85547 12.1101 8.56455 12.2211 8.27388 12.2211C8.20117 12.2211 8.12852 12.2141 8.05684 12.2003C8.021 12.1934 7.98545 12.1847 7.95034 12.1743C7.77466 12.1222 7.60903 12.0269 7.47036 11.8882C7.38716 11.805 7.31953 11.7121 7.26758 11.6131C7.25024 11.5801 7.23462 11.5464 7.22075 11.5123C7.19302 11.4438 7.17217 11.3733 7.15835 11.3017C7.11675 11.0868 7.1376 10.8622 7.22075 10.657C7.27622 10.5202 7.35947 10.392 7.47036 10.2811L9.75625 7.99526L9.7564 7.99517L7.51821 7.99526L6.52183 7.99536C6.52183 7.99536 6.52075 7.99526 6.52021 7.99526C5.55537 7.99487 4.64902 7.61968 3.96802 6.93843C3.94194 6.91235 3.91748 6.88545 3.89243 6.85889C3.85249 6.81645 3.81372 6.77334 3.77622 6.72949C3.70122 6.64175 3.63101 6.55132 3.56567 6.4585C3.50039 6.36562 3.43999 6.27041 3.38447 6.1731C3.32896 6.07573 3.27832 5.97642 3.23257 5.87529C3.20967 5.82476 3.18809 5.77378 3.16763 5.72241H1.13638C0.508789 5.72256 0 6.23135 0 6.85894V16.5992V23.0926C0 23.7202 0.508789 24.229 1.13638 24.229H12.501H23.8636C24.4912 24.229 25 23.7203 25 23.0926V16.5992V6.85894C25 6.23135 24.4912 5.72256 23.8636 5.72256Z"
            fill="#D8143A" />
        <path
            d="M3.96805 6.93857C4.64906 7.61978 5.5554 7.99502 6.52025 7.99541C6.52078 7.99541 6.52186 7.99551 6.52186 7.99551L7.51825 7.99541L9.75643 7.99531L9.75628 7.99541L7.47039 10.2812C7.02669 10.725 7.0266 11.4445 7.47039 11.8883C7.69227 12.1103 7.98314 12.2212 8.27386 12.2212C8.56463 12.2212 8.85555 12.1103 9.07733 11.8884L12.5 8.46582L15.9227 11.8883C16.1446 12.1102 16.4354 12.2212 16.7263 12.2212C17.0171 12.2212 17.3079 12.1102 17.5297 11.8882C17.9735 11.4445 17.9734 10.725 17.5297 10.2812L15.2438 7.99536L15.2436 7.99512H18.445L18.4727 7.99536L18.4784 7.99546C18.4785 7.99546 18.4793 7.99536 18.4798 7.99536C19.4446 7.99497 20.3508 7.61978 21.0317 6.93867C21.0577 6.9126 21.0825 6.88569 21.1077 6.85898C21.4232 6.52407 21.668 6.13936 21.834 5.72261C22.0015 5.30229 22.09 4.8501 22.09 4.38403C22.09 3.41919 21.7143 2.51182 21.0318 1.82925C20.3494 1.14683 19.4422 0.770996 18.4772 0.770996C17.5122 0.770996 16.6049 1.14683 15.9226 1.82925L12.5 5.25176L9.07748 1.82935C8.39515 1.14692 7.48787 0.771094 6.52293 0.771094C5.55799 0.771094 4.65081 1.14702 3.9681 1.82949C2.91751 2.88037 2.65111 4.42236 3.16766 5.72266C3.33084 6.1335 3.57284 6.51973 3.89237 6.85903C3.91751 6.8856 3.94203 6.9125 3.96805 6.93857ZM17.5298 3.43638C17.7829 3.1832 18.1194 3.0438 18.4772 3.0438C18.8351 3.0438 19.1716 3.1832 19.4246 3.43638C19.6779 3.68955 19.8173 4.02617 19.8173 4.38408C19.8173 4.74199 19.6779 5.07847 19.4246 5.33164C19.1728 5.58359 18.837 5.72241 18.4791 5.72261C18.4789 5.72261 18.4787 5.7227 18.4787 5.7227H18.4784L18.4724 5.72261L18.4603 5.72251C18.4554 5.72241 18.4503 5.72236 18.4452 5.72236H15.2436L17.5298 3.43638ZM5.57518 3.43643C5.82845 3.18315 6.16502 3.04375 6.52298 3.04375C6.88079 3.04375 7.21722 3.18315 7.47039 3.43643L9.75662 5.72241H6.55496C6.54998 5.72241 6.54491 5.72251 6.53988 5.72256L6.52782 5.72266L6.52181 5.72275H6.52157C6.52157 5.72275 6.52127 5.72266 6.52103 5.72266C6.16302 5.72241 5.82718 5.58364 5.57518 5.33154C5.05277 4.80918 5.05282 3.95903 5.57518 3.43643Z"
            fill="#E69629" />
        <path d="M6.52227 5.72289L6.52822 5.72266H6.52148L6.52227 5.72289Z" fill="#D8143A" />
        <path d="M18.4787 5.72289L18.4794 5.72266H18.4727L18.4787 5.72289Z" fill="#D8143A" />
        <path d="M18.4787 5.72289L18.4727 5.72266L18.4787 5.72289Z" fill="#D8143A" />
        <path
            d="M1.13638 17.7356H2.27275H12.501V15.4629H2.27271H1.13638C0.508789 15.4629 0 15.9717 0 16.5993C0 17.227 0.508789 17.7356 1.13638 17.7356Z"
            fill="#FFA733" />
        <path
            d="M23.8626 15.4629H22.7263H12.5V17.7356H22.7263H23.8626C24.4902 17.7356 24.999 17.2269 24.999 16.5992C24.999 15.9717 24.4902 15.4629 23.8626 15.4629Z"
            fill="#FFA733" />
        <path
            d="M0 16.5993C0 15.9718 0.508789 15.4629 1.13638 15.4629H2.27275H12.501V8.46685L12.5 8.46587L9.07734 11.8884C8.85547 12.1103 8.56455 12.2212 8.27388 12.2212C7.98306 12.2212 7.69219 12.1103 7.47041 11.8883C7.02661 11.4446 7.02671 10.725 7.47041 10.2813L9.7563 7.99541L9.75644 7.99531L7.51826 7.99541L6.52187 7.99551H6.52134C6.52134 7.99551 6.5208 7.99541 6.52026 7.99541C5.55542 7.99502 4.64907 7.61982 3.96807 6.93857C3.94199 6.9125 3.91753 6.8856 3.89248 6.85903C3.57285 6.51973 3.33096 6.1335 3.16777 5.72266H1.13638C0.508789 5.72266 0 6.23145 0 6.85903V16.5993Z"
            fill="#B8002B" />
        <path
            d="M6.52061 7.9956H6.52114C6.52114 7.9956 6.52007 7.99536 6.51953 7.99536C6.52007 7.99548 6.52061 7.9956 6.52061 7.9956Z"
            fill="#B4002B" />
        <path
            d="M2.27271 17.7354H1.13638C0.508789 17.7354 0 17.2268 0 16.5991V23.0925C0 23.7202 0.508789 24.2289 1.13638 24.2289H12.501V17.7354H2.27271Z"
            fill="#B8002B" />
    </g>
    <defs>
        <clipPath id="clip0_2160_4979">
            <rect width="25" height="25" fill="white" />
        </clipPath>
    </defs>
</svg>
