<svg width="60" height="60" viewBox="0 0 60 60" fill="none" xmlns="http://www.w3.org/2000/svg">
    <path opacity="0.5"
        d="M35.129 5C39.3295 4.99998 42.6567 4.99993 45.2607 5.35613C47.9405 5.7227 50.1095 6.49508 51.82 8.23545C53.5305 9.97583 54.2898 12.1827 54.65 14.9093C55 17.5585 55 20.9438 55 25.2175V34.7825C55 39.0563 55 42.4415 54.65 45.0908C54.2898 47.8173 53.5305 50.0242 51.82 51.7645C50.1095 53.505 47.9405 54.2772 45.2607 54.6437C42.6567 55 39.3295 55 35.1292 55H34.871C30.6705 55 27.3433 55 24.7394 54.6437C22.0596 54.2772 19.8905 53.505 18.18 51.7645C16.4694 50.0242 15.7103 47.8173 15.35 45.0908C15 42.4415 15 39.0563 15 34.7825V25.2175C15 20.9437 15 17.5586 15.35 14.9093C15.7103 12.1827 16.4694 9.97583 18.18 8.23545C19.8905 6.49508 22.0596 5.7227 24.7394 5.35613C27.3433 4.99993 30.6705 4.99998 34.871 5H35.129Z"
        fill="white" />
    <path
        d="M30 45.625C28.9645 45.625 28.125 46.4645 28.125 47.5C28.125 48.5355 28.9645 49.375 30 49.375H42.5C43.5355 49.375 44.375 48.5355 44.375 47.5C44.375 46.4645 43.5355 45.625 42.5 45.625H30Z"
        fill="white" />
    <path
        d="M5 36.25C5 32.7387 5 30.9832 5.84265 29.7222C6.20745 29.1762 6.6762 28.7075 7.22215 28.3428C8.48327 27.5 10.2389 27.5 13.75 27.5C17.2612 27.5 19.0167 27.5 20.2779 28.3428C20.8238 28.7075 21.2925 29.1762 21.6574 29.7222C22.5 30.9832 22.5 32.7387 22.5 36.25V46.25C22.5 49.7612 22.5 51.5167 21.6574 52.7777C21.2925 53.3237 20.8238 53.7925 20.2779 54.1573C19.0167 55 17.2612 55 13.75 55C10.2389 55 8.48327 55 7.22215 54.1573C6.6762 53.7925 6.20745 53.3237 5.84265 52.7777C5 51.5167 5 49.7612 5 46.25V36.25Z"
        fill="white" />
</svg>
