<svg width="25" height="25" viewBox="0 0 25 25" fill="none" xmlns="http://www.w3.org/2000/svg">
    <path fill-rule="evenodd" clip-rule="evenodd"
        d="M5.20898 12.5001C5.20924 9.02146 7.66674 6.02741 11.0786 5.34899C14.4905 4.67056 17.9064 6.49672 19.2374 9.71065C20.5685 12.9246 19.4438 16.6312 16.5513 18.5637C13.6588 20.4961 9.80405 20.1163 7.3444 17.6564C5.97698 16.2888 5.20884 14.434 5.20898 12.5001Z"
        stroke="#FF0000" stroke-width="1.5" stroke-linecap="round" stroke-linejoin="round" />
    <path
        d="M9.2354 14.703C8.94245 14.9958 8.94236 15.4707 9.23519 15.7636C9.52803 16.0566 10.0029 16.0567 10.2959 15.7638L9.2354 14.703ZM13.0302 13.0305C13.3232 12.7377 13.3233 12.2628 13.0304 11.9698C12.7376 11.6769 12.2627 11.6768 11.9698 11.9696L13.0302 13.0305ZM11.9695 11.9699C11.6767 12.2629 11.6769 12.7378 11.9699 13.0306C12.2629 13.3234 12.7378 13.3232 13.0305 13.0302L11.9695 11.9699ZM15.7639 10.2948C16.0566 10.0018 16.0565 9.5269 15.7635 9.23412C15.4705 8.94133 14.9956 8.94152 14.7028 9.23452L15.7639 10.2948ZM13.0302 11.9696C12.7373 11.6768 12.2624 11.6769 11.9696 11.9698C11.6767 12.2628 11.6768 12.7377 11.9698 13.0305L13.0302 11.9696ZM14.7041 15.7638C14.9971 16.0567 15.472 16.0566 15.7648 15.7636C16.0576 15.4707 16.0576 14.9958 15.7646 14.703L14.7041 15.7638ZM11.9696 13.0303C12.2624 13.3232 12.7373 13.3233 13.0302 13.0305C13.3232 12.7377 13.3233 12.2628 13.0304 11.9698L11.9696 13.0303ZM10.2961 9.23442C10.0032 8.94147 9.52834 8.94138 9.2354 9.23422C8.94245 9.52705 8.94236 10.0019 9.23519 10.2949L10.2961 9.23442ZM10.2959 15.7638L13.0302 13.0305L11.9698 11.9696L9.2354 14.703L10.2959 15.7638ZM13.0305 13.0302L15.7639 10.2948L14.7028 9.23452L11.9695 11.9699L13.0305 13.0302ZM11.9698 13.0305L14.7041 15.7638L15.7646 14.703L13.0302 11.9696L11.9698 13.0305ZM13.0304 11.9698L10.2961 9.23442L9.23519 10.2949L11.9696 13.0303L13.0304 11.9698Z"
        fill="#FF0000" />
</svg>
