<?xml version="1.0" encoding="UTF-8"?><!DOCTYPE svg PUBLIC "-//W3C//DTD SVG 1.1//EN"
    "http://www.w3.org/Graphics/SVG/1.1/DTD/svg11.dtd">
<svg xmlns="http://www.w3.org/2000/svg" version="1.1" width="1000px" height="1000px"
    style="shape-rendering:geometricPrecision; text-rendering:geometricPrecision; image-rendering:optimizeQuality; fill-rule:evenodd; clip-rule:evenodd"
    xmlns:xlink="http://www.w3.org/1999/xlink">
    <g>
        <path style="opacity:1" fill="#fdfdfd"
            d="M 149.5,359.5 C 169.169,359.333 188.836,359.5 208.5,360C 235.455,362.958 252.621,377.458 260,403.5C 261.094,412.785 261.594,422.118 261.5,431.5C 265.986,458.376 255.986,477.209 231.5,488C 247.771,491.938 257.604,502.104 261,518.5C 261.667,534.5 261.667,550.5 261,566.5C 254.956,597.541 236.123,614.041 204.5,616C 185.833,616.667 167.167,616.667 148.5,616C 121.886,613.035 104.719,598.868 97,573.5C 94.6448,560.937 93.9781,548.27 95,535.5C 96.1667,534.333 97.3333,533.167 98.5,532C 112.5,531.333 126.5,531.333 140.5,532C 142.726,533.227 144.226,535.061 145,537.5C 145.333,544.833 145.667,552.167 146,559.5C 147.594,568.092 152.761,572.926 161.5,574C 172.5,574.667 183.5,574.667 194.5,574C 198.766,572.913 202.766,571.246 206.5,569C 209.269,565.628 211.102,561.795 212,557.5C 212.667,546.5 212.667,535.5 212,524.5C 210.176,516.009 205.009,510.842 196.5,509C 184.762,508.936 173.096,508.27 161.5,507C 160.54,505.581 159.707,504.081 159,502.5C 158.333,492.167 158.333,481.833 159,471.5C 159.956,470.421 160.789,469.255 161.5,468C 172.428,466.735 183.428,466.068 194.5,466C 204.553,464.947 210.386,459.447 212,449.5C 212.667,438.833 212.667,428.167 212,417.5C 209.792,408.303 203.959,403.136 194.5,402C 183.5,401.333 172.5,401.333 161.5,402C 154.771,402.942 149.938,406.442 147,412.5C 145.796,420.772 145.129,429.106 145,437.5C 144.293,439.081 143.46,440.581 142.5,442C 127.927,443.633 113.26,443.966 98.5,443C 96.9512,441.786 95.7845,440.286 95,438.5C 91.6294,418.844 94.9628,400.511 105,383.5C 116.492,369.146 131.326,361.146 149.5,359.5 Z" />
    </g>
    <g>
        <path style="opacity:1" fill="#fdfdfd"
            d="M 356.5,359.5 C 389.502,359.333 422.502,359.5 455.5,360C 456.931,360.465 458.097,361.299 459,362.5C 459.667,374.833 459.667,387.167 459,399.5C 457.992,401.259 456.492,402.426 454.5,403C 426.5,403.333 398.5,403.667 370.5,404C 361.694,405.473 356.527,410.639 355,419.5C 354.5,430.828 354.333,442.162 354.5,453.5C 375.503,453.333 396.503,453.5 417.5,454C 451.268,456.769 470.435,474.935 475,508.5C 475.667,525.5 475.667,542.5 475,559.5C 472.627,590.199 456.46,608.699 426.5,615C 403.194,616.568 379.86,616.901 356.5,616C 324.536,610.7 307.036,591.867 304,559.5C 303.033,509.139 303.366,458.805 305,408.5C 311.034,380.296 328.2,363.963 356.5,359.5 Z" />
    </g>
    <g>
        <path style="opacity:1" fill="#fefefe"
            d="M 569.5,359.5 C 589.836,359.333 610.169,359.5 630.5,360C 660.595,362.761 678.761,378.928 685,408.5C 685.667,461.167 685.667,513.833 685,566.5C 678.569,596.99 659.736,613.49 628.5,616C 608.5,616.667 588.5,616.667 568.5,616C 537.127,612.294 519.294,594.794 515,563.5C 514.833,538 514.667,512.5 514.5,487C 514.355,459.794 514.855,432.628 516,405.5C 523.369,377.911 541.202,362.578 569.5,359.5 Z" />
    </g>
    <g>
        <path style="opacity:1" fill="#000000"
            d="M 579.5,403.5 C 594.217,403.087 608.884,403.587 623.5,405C 630.01,407.167 633.843,411.667 635,418.5C 635.667,464.167 635.667,509.833 635,555.5C 634.18,565.653 628.68,571.153 618.5,572C 605.833,572.667 593.167,572.667 580.5,572C 571.863,569.919 567.03,564.419 566,555.5C 565.333,509.833 565.333,464.167 566,418.5C 567.573,410.765 572.073,405.765 579.5,403.5 Z" />
    </g>
    <g>
        <path style="opacity:1" fill="#fdfdfd"
            d="M 733.5,412.5 C 747.837,412.333 762.171,412.5 776.5,413C 778.049,414.214 779.215,415.714 780,417.5C 780.171,422.864 780.671,428.198 781.5,433.5C 787.401,423.447 796.068,416.947 807.5,414C 826.285,411.587 844.951,412.254 863.5,416C 886.571,425.764 898.738,443.264 900,468.5C 900.667,498.833 900.667,529.167 900,559.5C 899.136,577.725 891.969,592.892 878.5,605C 863.404,614.397 846.904,618.231 829,616.5C 814.39,618.182 801.223,614.682 789.5,606C 786.642,602.642 783.975,599.142 781.5,595.5C 780.667,618.826 780.167,642.16 780,665.5C 779.89,667.848 778.723,669.348 776.5,670C 762.167,670.667 747.833,670.667 733.5,670C 731.667,669.5 730.5,668.333 730,666.5C 729.333,583.167 729.333,499.833 730,416.5C 731.376,415.295 732.542,413.962 733.5,412.5 Z" />
    </g>
    <g>
        <path style="opacity:1" fill="#020202"
            d="M 800.5,456.5 C 811.172,456.333 821.839,456.5 832.5,457C 842,458.5 847.5,464 849,473.5C 849.667,500.833 849.667,528.167 849,555.5C 848.128,563.368 843.961,568.534 836.5,571C 824.549,572.557 812.549,572.891 800.5,572C 791.207,570.042 785.04,564.542 782,555.5C 780.389,529.536 780.056,503.536 781,477.5C 783.246,466.424 789.746,459.424 800.5,456.5 Z" />
    </g>
    <g>
        <path style="opacity:1" fill="#010101"
            d="M 407.5,498.5 C 416.619,499.45 422.119,504.45 424,513.5C 424.667,527.5 424.667,541.5 424,555.5C 422.541,564.959 417.041,570.459 407.5,572C 394.833,572.667 382.167,572.667 369.5,572C 360.956,569.634 356.29,564.134 355.5,555.5C 355.5,536.5 355.5,517.5 355.5,498.5C 372.833,498.5 390.167,498.5 407.5,498.5 Z" />
    </g>
    <g>
        <path style="opacity:1" fill="#474747"
            d="M 407.5,498.5 C 390.167,498.5 372.833,498.5 355.5,498.5C 355.5,517.5 355.5,536.5 355.5,555.5C 354.503,536.341 354.17,517.007 354.5,497.5C 372.341,497.17 390.008,497.503 407.5,498.5 Z" />
    </g>
</svg>
