<?xml version="1.0" encoding="UTF-8"?><!DOCTYPE svg PUBLIC "-//W3C//DTD SVG 1.1//EN"
    "http://www.w3.org/Graphics/SVG/1.1/DTD/svg11.dtd">
<svg xmlns="http://www.w3.org/2000/svg" version="1.1" width="1000px" height="1000px"
    style="shape-rendering:geometricPrecision; text-rendering:geometricPrecision; image-rendering:optimizeQuality; fill-rule:evenodd; clip-rule:evenodd"
    xmlns:xlink="http://www.w3.org/1999/xlink">
    <g>
        <path style="opacity:1" fill="#fdfdfd"
            d="M 176.5,359.5 C 195.17,359.333 213.836,359.5 232.5,360C 237.573,361.406 241.073,364.572 243,369.5C 243.5,421.499 243.667,473.499 243.5,525.5C 254.936,525.044 266.269,525.544 277.5,527C 278.211,528.255 279.044,529.421 280,530.5C 280.667,541.167 280.667,551.833 280,562.5C 279.837,564.676 279.004,566.509 277.5,568C 266.269,569.456 254.936,569.956 243.5,569.5C 243.667,583.837 243.5,598.171 243,612.5C 242.5,614.333 241.333,615.5 239.5,616C 226.5,616.667 213.5,616.667 200.5,616C 199.069,615.535 197.903,614.701 197,613.5C 195.55,598.905 195.05,584.239 195.5,569.5C 160.498,569.667 125.498,569.5 90.5,569C 86.1832,566.685 83.3498,563.185 82,558.5C 81.3333,549.167 81.3333,539.833 82,530.5C 82.7977,527.107 83.7977,523.774 85,520.5C 112.746,468.674 140.746,417.007 169,365.5C 171.114,362.879 173.614,360.879 176.5,359.5 Z" />
    </g>
    <g>
        <path style="opacity:1" fill="#fdfdfd"
            d="M 356.5,359.5 C 380.836,359.333 405.169,359.5 429.5,360C 459.517,364.349 476.35,381.516 480,411.5C 480.667,423.833 480.667,436.167 480,448.5C 478.379,465.767 470.213,478.767 455.5,487.5C 470.695,495.903 478.861,508.903 480,526.5C 480.667,538.5 480.667,550.5 480,562.5C 475.927,595.238 457.427,613.072 424.5,616C 400.473,616.904 376.473,616.571 352.5,615C 326.865,609.699 311.699,594.199 307,568.5C 306.333,552.833 306.333,537.167 307,521.5C 309.758,506.088 317.925,494.588 331.5,487C 316.113,478.913 307.946,466.079 307,448.5C 306.081,432.787 306.414,417.121 308,401.5C 315.328,377.341 331.495,363.341 356.5,359.5 Z" />
    </g>
    <g>
        <path style="opacity:1" fill="#fdfdfd"
            d="M 575.5,359.5 C 597.503,359.333 619.503,359.5 641.5,360C 671.915,364.082 689.415,381.248 694,411.5C 694.167,436.167 694.333,460.833 694.5,485.5C 694.626,513.191 694.126,540.857 693,568.5C 686.217,597.945 667.717,613.779 637.5,616C 616.833,616.667 596.167,616.667 575.5,616C 543.536,610.7 526.036,591.867 523,559.5C 522.333,511.5 522.333,463.5 523,415.5C 526.682,383.657 544.182,364.99 575.5,359.5 Z" />
    </g>
    <g>
        <path style="opacity:1" fill="#040404"
            d="M 373.5,402.5 C 386.837,402.333 400.171,402.5 413.5,403C 423,404.5 428.5,410 430,419.5C 430.667,429.5 430.667,439.5 430,449.5C 428.934,454.039 427.101,458.206 424.5,462C 421.211,464.478 417.544,466.144 413.5,467C 399.833,467.667 386.167,467.667 372.5,467C 363.586,465.085 358.42,459.585 357,450.5C 356.333,439.5 356.333,428.5 357,417.5C 359.381,408.918 364.881,403.918 373.5,402.5 Z" />
    </g>
    <g>
        <path style="opacity:1" fill="#020202"
            d="M 588.5,403.5 C 603.217,403.087 617.884,403.587 632.5,405C 638.876,407.72 642.71,412.554 644,419.5C 644.667,464.833 644.667,510.167 644,555.5C 642.875,565.292 637.375,570.792 627.5,572C 613.444,572.928 599.444,572.595 585.5,571C 579.394,568.557 575.894,564.057 575,557.5C 574.333,511.167 574.333,464.833 575,418.5C 576.601,410.739 581.101,405.739 588.5,403.5 Z" />
    </g>
    <g>
        <path style="opacity:1" fill="#010101"
            d="M 194.5,403.5 C 195.499,443.997 195.832,484.663 195.5,525.5C 174.156,525.833 152.823,525.5 131.5,524.5C 152.781,484.27 173.781,443.937 194.5,403.5 Z" />
    </g>
    <g>
        <path style="opacity:1" fill="#fdfdfd"
            d="M 742.5,412.5 C 756.504,412.333 770.504,412.5 784.5,413C 787.102,413.935 788.602,415.768 789,418.5C 789.171,423.533 789.671,428.533 790.5,433.5C 797.207,421.971 807.207,415.137 820.5,413C 836.261,411.924 851.928,412.591 867.5,415C 889.28,421.115 902.447,435.282 907,457.5C 908.62,493.47 908.953,529.47 908,565.5C 903.379,596.457 885.546,613.29 854.5,616C 843.167,616.667 831.833,616.667 820.5,616C 807.183,613.764 797.016,606.931 790,595.5C 789.667,618.833 789.333,642.167 789,665.5C 788.215,667.286 787.049,668.786 785.5,670C 770.833,670.667 756.167,670.667 741.5,670C 740.667,669.167 739.833,668.333 739,667.5C 738.333,583.833 738.333,500.167 739,416.5C 739.69,414.65 740.856,413.316 742.5,412.5 Z" />
    </g>
    <g>
        <path style="opacity:1" fill="#000000"
            d="M 809.5,456.5 C 821.553,456.109 833.553,456.609 845.5,458C 850.598,459.433 854.098,462.6 856,467.5C 857.626,496.793 857.959,526.126 857,555.5C 856.424,563.175 852.591,568.342 845.5,571C 832.158,572.979 818.825,572.979 805.5,571C 798.242,568.076 793.408,562.909 791,555.5C 789.38,529.541 789.046,503.541 790,477.5C 791.895,466.108 798.395,459.108 809.5,456.5 Z" />
    </g>
    <g>
        <path style="opacity:1" fill="#030303"
            d="M 373.5,506.5 C 385.505,506.333 397.505,506.5 409.5,507C 420.992,507.498 427.825,513.332 430,524.5C 430.667,535.167 430.667,545.833 430,556.5C 428.806,565.694 423.639,570.861 414.5,572C 399.5,572.667 384.5,572.667 369.5,572C 362.039,569.534 357.872,564.368 357,556.5C 356.333,545.5 356.333,534.5 357,523.5C 357.856,519.456 359.522,515.789 362,512.5C 365.59,509.833 369.424,507.833 373.5,506.5 Z" />
    </g>
</svg>
