<?xml version="1.0" encoding="UTF-8"?><!DOCTYPE svg PUBLIC "-//W3C//DTD SVG 1.1//EN"
    "http://www.w3.org/Graphics/SVG/1.1/DTD/svg11.dtd">
<svg xmlns="http://www.w3.org/2000/svg" version="1.1" width="1000px" height="1000px"
    style="shape-rendering:geometricPrecision; text-rendering:geometricPrecision; image-rendering:optimizeQuality; fill-rule:evenodd; clip-rule:evenodd"
    xmlns:xlink="http://www.w3.org/1999/xlink">
    <g>
        <path style="opacity:1" fill="#fdfdfd"
            d="M 153.5,414.5 C 152.523,417.287 152.19,420.287 152.5,423.5C 181.167,423.5 209.833,423.5 238.5,423.5C 240.371,423.859 241.871,424.859 243,426.5C 243.667,437.167 243.667,447.833 243,458.5C 242.5,460.333 241.333,461.5 239.5,462C 195.167,462.667 150.833,462.667 106.5,462C 104.951,460.786 103.785,459.286 103,457.5C 102.333,443.833 102.333,430.167 103,416.5C 105.117,405.048 110.617,395.548 119.5,388C 143.627,368.209 167.46,348.042 191,327.5C 200.043,316.023 203.043,303.023 200,288.5C 197.94,280.441 192.774,275.941 184.5,275C 175.833,274.333 167.167,274.333 158.5,275C 152.764,276.402 148.931,279.902 147,285.5C 146.667,293.167 146.333,300.833 146,308.5C 145.215,310.286 144.049,311.786 142.5,313C 129.833,313.667 117.167,313.667 104.5,313C 103.299,312.097 102.465,310.931 102,309.5C 100.099,294.373 101.766,279.706 107,265.5C 115.339,249.567 128.505,240.4 146.5,238C 163.5,237.333 180.5,237.333 197.5,238C 224.496,241.996 239.663,257.496 243,284.5C 243.827,297.534 243.493,310.534 242,323.5C 239.221,332.395 234.888,340.395 229,347.5C 206.779,367.022 184.279,386.189 161.5,405C 158.223,407.766 155.557,410.933 153.5,414.5 Z" />
    </g>
    <g>
        <path style="opacity:1" fill="#fcfcfc"
            d="M 313.5,237.5 C 325.505,237.333 337.505,237.5 349.5,238C 351.333,238.5 352.5,239.667 353,241.5C 353.667,313.5 353.667,385.5 353,457.5C 352.89,459.848 351.723,461.348 349.5,462C 337.167,462.667 324.833,462.667 312.5,462C 310.951,460.786 309.785,459.286 309,457.5C 308.833,400.164 308.333,342.83 307.5,285.5C 295.674,292.829 283.507,299.496 271,305.5C 269.674,305.245 268.674,304.578 268,303.5C 267.333,291.167 267.333,278.833 268,266.5C 270.205,263.96 272.705,261.793 275.5,260C 288.097,252.208 300.764,244.708 313.5,237.5 Z" />
    </g>
    <g>
        <path style="opacity:1" fill="#fefefe"
            d="M 440.5,237.5 C 469.169,237.333 497.835,237.5 526.5,238C 527.931,238.465 529.097,239.299 530,240.5C 530.667,251.167 530.667,261.833 530,272.5C 529.5,273.667 528.667,274.5 527.5,275C 502.833,275.333 478.167,275.667 453.5,276C 445.754,277.414 440.921,281.914 439,289.5C 438.5,299.828 438.334,310.161 438.5,320.5C 458.836,320.333 479.169,320.5 499.5,321C 523.757,324.59 538.257,338.423 543,362.5C 543.667,381.167 543.667,399.833 543,418.5C 539.086,441.749 525.586,455.916 502.5,461C 479.819,462.951 457.152,462.951 434.5,461C 412.014,455.514 398.848,441.347 395,418.5C 394.333,372.5 394.333,326.5 395,280.5C 400.341,255.657 415.507,241.323 440.5,237.5 Z" />
    </g>
    <g>
        <path style="opacity:1" fill="#fdfdfd"
            d="M 623.5,237.5 C 643.169,237.333 662.836,237.5 682.5,238C 708.582,241.75 723.749,256.583 728,282.5C 728.167,304.333 728.333,326.167 728.5,348C 728.626,372.527 728.126,397.027 727,421.5C 724.149,435.322 716.982,446.155 705.5,454C 699.736,456.922 693.736,459.255 687.5,461C 666.194,462.557 644.861,462.89 623.5,462C 600.101,458.599 585.601,445.433 580,422.5C 578.873,397.694 578.373,372.86 578.5,348C 578.358,324.127 578.858,300.294 580,276.5C 586.198,254.131 600.698,241.131 623.5,237.5 Z" />
    </g>
    <g>
        <path style="opacity:1" fill="#010101"
            d="M 633.5,276.5 C 646.837,276.333 660.171,276.5 673.5,277C 679.465,279.095 682.965,283.262 684,289.5C 684.667,329.5 684.667,369.5 684,409.5C 683.27,415.136 680.436,419.303 675.5,422C 662.223,423.591 648.89,423.924 635.5,423C 630.217,422.385 626.717,419.551 625,414.5C 623.356,372.546 623.022,330.546 624,288.5C 625.194,282.819 628.36,278.819 633.5,276.5 Z" />
    </g>
    <g>
        <path style="opacity:1" fill="#fcfcfc"
            d="M 771.5,283.5 C 783.909,283.061 796.242,283.561 808.5,285C 809.701,285.903 810.535,287.069 811,288.5C 811.333,293.167 811.667,297.833 812,302.5C 817.339,293.405 825.172,287.571 835.5,285C 850.541,284.104 865.541,284.437 880.5,286C 900.037,292.533 911.537,306.033 915,326.5C 915.932,359.191 915.599,391.858 914,424.5C 908.918,444.917 896.085,457.083 875.5,461C 860.412,463.308 845.412,462.975 830.5,460C 822.418,456.582 816.252,451.082 812,443.5C 811.667,464.167 811.333,484.833 811,505.5C 810.065,508.102 808.232,509.602 805.5,510C 793.833,510.667 782.167,510.667 770.5,510C 769.333,508.833 768.167,507.667 767,506.5C 766.333,433.5 766.333,360.5 767,287.5C 768.397,285.93 769.897,284.596 771.5,283.5 Z" />
    </g>
    <g>
        <path style="opacity:1" fill="#020202"
            d="M 828.5,322.5 C 837.839,322.334 847.173,322.5 856.5,323C 862.704,323.844 867.204,327.01 870,332.5C 871.629,358.117 871.963,383.784 871,409.5C 870.077,416.081 866.577,420.581 860.5,423C 849.167,423.667 837.833,423.667 826.5,423C 819.43,421.052 814.93,416.552 813,409.5C 811.386,386.542 811.053,363.542 812,340.5C 813.942,331.065 819.442,325.065 828.5,322.5 Z" />
    </g>
    <g>
        <path style="opacity:1" fill="#020202"
            d="M 438.5,358.5 C 453.837,358.333 469.17,358.5 484.5,359C 492.432,359.601 497.266,363.767 499,371.5C 499.667,383.833 499.667,396.167 499,408.5C 498.515,415.985 494.682,420.819 487.5,423C 474.833,423.667 462.167,423.667 449.5,423C 443.384,420.549 439.884,416.049 439,409.5C 438.5,392.503 438.333,375.503 438.5,358.5 Z" />
    </g>
    <g>
        <path style="opacity:1" fill="#323232"
            d="M 153.5,414.5 C 153.5,417.167 153.5,419.833 153.5,422.5C 182.005,422.169 210.338,422.502 238.5,423.5C 209.833,423.5 181.167,423.5 152.5,423.5C 152.19,420.287 152.523,417.287 153.5,414.5 Z" />
    </g>
    <g>
        <path style="opacity:1" fill="#fcfcfc"
            d="M 239.5,556.5 C 248.173,556.334 256.84,556.5 265.5,557C 266.333,557.833 267.167,558.667 268,559.5C 268.667,616.167 268.667,672.833 268,729.5C 267.5,730.667 266.667,731.5 265.5,732C 256.5,732.667 247.5,732.667 238.5,732C 237.874,731.25 237.374,730.416 237,729.5C 236.333,672.833 236.333,616.167 237,559.5C 237.698,558.309 238.531,557.309 239.5,556.5 Z" />
    </g>
    <g>
        <path style="opacity:1" fill="#fcfcfc"
            d="M 99.5,571.5 C 108.173,571.334 116.84,571.5 125.5,572C 126.333,572.833 127.167,573.667 128,574.5C 128.333,615.5 128.667,656.5 129,697.5C 130.5,700.333 132.667,702.5 135.5,704C 140.667,704.167 145.833,704.333 151,704.5C 157.245,704.601 163.411,704.101 169.5,703C 172.268,701.238 173.768,698.738 174,695.5C 174.333,655.167 174.667,614.833 175,574.5C 175.833,573.667 176.667,572.833 177.5,572C 186.167,571.333 194.833,571.333 203.5,572C 204.416,572.374 205.25,572.874 206,573.5C 206.667,616.167 206.667,658.833 206,701.5C 202.527,718.306 192.36,728.473 175.5,732C 159.5,732.667 143.5,732.667 127.5,732C 110.676,728.509 100.509,718.342 97,701.5C 96.3333,659.167 96.3333,616.833 97,574.5C 97.6979,573.309 98.5313,572.309 99.5,571.5 Z" />
    </g>
    <g>
        <path style="opacity:1" fill="#fbfbfb"
            d="M 662.5,571.5 C 671.173,571.334 679.84,571.5 688.5,572C 689.333,572.833 690.167,573.667 691,574.5C 691.173,595.74 691.673,616.906 692.5,638C 707.833,638.667 723.167,638.667 738.5,638C 739.327,616.573 739.827,595.073 740,573.5C 740.5,573 741,572.5 741.5,572C 750.5,571.333 759.5,571.333 768.5,572C 769.333,572.833 770.167,573.667 771,574.5C 771.667,626.167 771.667,677.833 771,729.5C 770.167,730.333 769.333,731.167 768.5,732C 759.5,732.667 750.5,732.667 741.5,732C 741,731.5 740.5,731 740,730.5C 739.827,709.26 739.327,688.094 738.5,667C 722.837,666.5 707.17,666.333 691.5,666.5C 691.667,687.503 691.5,708.503 691,729.5C 690.5,730.667 689.667,731.5 688.5,732C 679.5,732.667 670.5,732.667 661.5,732C 660.874,731.25 660.374,730.416 660,729.5C 659.333,677.833 659.333,626.167 660,574.5C 660.698,573.309 661.531,572.309 662.5,571.5 Z" />
    </g>
    <g>
        <path style="opacity:1" fill="#fdfdfd"
            d="M 806.5,571.5 C 832.531,571.077 858.531,571.577 884.5,573C 898.432,577.265 907.265,586.432 911,600.5C 911.667,634.167 911.667,667.833 911,701.5C 907,720.168 895.5,730.334 876.5,732C 852.594,732.827 828.761,732.66 805,731.5C 803.342,679.25 803.009,626.916 804,574.5C 804.698,573.309 805.531,572.309 806.5,571.5 Z" />
    </g>
    <g>
        <path style="opacity:1" fill="#fbfbfb"
            d="M 304.5,573.5 C 313.839,573.334 323.173,573.5 332.5,574C 333,574.5 333.5,575 334,575.5C 334.5,585.161 334.666,594.828 334.5,604.5C 342.174,604.334 349.841,604.5 357.5,605C 359.329,605.273 360.829,606.107 362,607.5C 362.667,614.833 362.667,622.167 362,629.5C 361.692,630.308 361.192,630.975 360.5,631.5C 351.97,632.153 343.47,632.82 335,633.5C 334.333,654.833 334.333,676.167 335,697.5C 336.5,700.333 338.667,702.5 341.5,704C 348.167,704.333 354.833,704.667 361.5,705C 362.333,705.833 363.167,706.667 364,707.5C 364.667,715.167 364.667,722.833 364,730.5C 363.5,731 363,731.5 362.5,732C 352.833,732.667 343.167,732.667 333.5,732C 316.667,728.5 306.5,718.333 303,701.5C 302.667,678.833 302.333,656.167 302,633.5C 296.917,632.693 291.75,632.193 286.5,632C 286,631.5 285.5,631 285,630.5C 284.333,622.833 284.333,615.167 285,607.5C 285.833,606.667 286.667,605.833 287.5,605C 292.418,604.805 297.251,604.305 302,603.5C 302.333,594.167 302.667,584.833 303,575.5C 303.717,574.956 304.217,574.289 304.5,573.5 Z" />
    </g>
    <g>
        <path style="opacity:1" fill="#030303"
            d="M 836.5,599.5 C 848.505,599.333 860.505,599.5 872.5,600C 876.49,601.99 878.99,605.157 880,609.5C 880.667,637.833 880.667,666.167 880,694.5C 879.27,699.155 876.77,702.321 872.5,704C 860.171,704.5 847.838,704.667 835.5,704.5C 835.174,669.427 835.507,634.427 836.5,599.5 Z" />
    </g>
    <g>
        <path style="opacity:1" fill="#fbfbfb"
            d="M 388.5,604.5 C 397.173,604.334 405.84,604.5 414.5,605C 415.333,605.833 416.167,606.667 417,607.5C 417.333,611.167 417.667,614.833 418,618.5C 421.306,612.089 426.472,607.922 433.5,606C 440.099,604.504 446.766,604.171 453.5,605C 454.333,605.833 455.167,606.667 456,607.5C 456.667,615.167 456.667,622.833 456,630.5C 455.5,631 455,631.5 454.5,632C 445.833,632.333 437.167,632.667 428.5,633C 423,634.5 419.5,638 418,643.5C 417.667,672.167 417.333,700.833 417,729.5C 416.167,730.333 415.333,731.167 414.5,732C 405.5,732.667 396.5,732.667 387.5,732C 387,731.5 386.5,731 386,730.5C 385.333,689.5 385.333,648.5 386,607.5C 387.045,606.627 387.878,605.627 388.5,604.5 Z" />
    </g>
    <g>
        <path style="opacity:1" fill="#fcfcfc"
            d="M 504.5,604.5 C 526.836,604.333 549.169,604.5 571.5,605C 572.333,605.833 573.167,606.667 574,607.5C 574.667,648.167 574.667,688.833 574,729.5C 573.692,730.308 573.192,730.975 572.5,731.5C 563.548,732.639 554.548,732.805 545.5,732C 544.333,731.5 543.5,730.667 543,729.5C 542.667,726.167 542.333,722.833 542,719.5C 538.528,725.641 533.362,729.474 526.5,731C 512.166,734.271 498.499,732.604 485.5,726C 477.538,720.59 472.705,713.09 471,703.5C 470.333,680.167 470.333,656.833 471,633.5C 475.883,616.443 487.05,606.776 504.5,604.5 Z" />
    </g>
    <g>
        <path style="opacity:1" fill="#030303"
            d="M 511.5,632.5 C 521.553,632.192 531.553,632.525 541.5,633.5C 542.666,653.492 542.833,673.492 542,693.5C 540.5,699 537,702.5 531.5,704C 523.833,704.667 516.167,704.667 508.5,704C 506,702.833 504.167,701 503,698.5C 501.386,679.886 501.052,661.219 502,642.5C 503.051,636.953 506.218,633.619 511.5,632.5 Z" />
    </g>
</svg>
