<?xml version="1.0" encoding="UTF-8"?><!DOCTYPE svg PUBLIC "-//W3C//DTD SVG 1.1//EN"
    "http://www.w3.org/Graphics/SVG/1.1/DTD/svg11.dtd">
<svg xmlns="http://www.w3.org/2000/svg" version="1.1" width="1000px" height="1000px"
    style="shape-rendering:geometricPrecision; text-rendering:geometricPrecision; image-rendering:optimizeQuality; fill-rule:evenodd; clip-rule:evenodd"
    xmlns:xlink="http://www.w3.org/1999/xlink">
    <g>
        <path style="opacity:1" fill="#fefefe"
            d="M 124.5,249.5 C 136.505,249.333 148.505,249.5 160.5,250C 161.931,250.465 163.097,251.299 164,252.5C 164.667,325.167 164.667,397.833 164,470.5C 163.682,472.061 162.849,473.228 161.5,474C 148.833,474.667 136.167,474.667 123.5,474C 122.667,473.167 121.833,472.333 121,471.5C 120.667,413.167 120.333,354.833 120,296.5C 108.412,303.712 96.5785,310.546 84.5,317C 82.2992,317.825 80.4659,317.325 79,315.5C 78.0398,302.738 78.3731,290.071 80,277.5C 94.3406,267.254 109.174,257.921 124.5,249.5 Z" />
    </g>
    <g>
        <path style="opacity:1" fill="#fbfbfb"
            d="M 250.5,249.5 C 269.17,249.333 287.836,249.5 306.5,250C 335.42,252.92 351.92,268.753 356,297.5C 356.667,340.167 356.667,382.833 356,425.5C 352.377,454.79 335.877,470.957 306.5,474C 288.5,474.667 270.5,474.667 252.5,474C 224.751,469.584 209.251,453.418 206,425.5C 205.333,383.167 205.333,340.833 206,298.5C 209.195,271.477 224.028,255.143 250.5,249.5 Z" />
    </g>
    <g>
        <path style="opacity:1" fill="#fdfdfd"
            d="M 437.5,249.5 C 457.169,249.333 476.836,249.5 496.5,250C 522.612,251.124 538.779,264.291 545,289.5C 545.915,304.546 545.582,319.546 544,334.5C 541.502,346.483 535.002,355.483 524.5,361.5C 535.777,367.956 542.611,377.623 545,390.5C 545.866,406.532 545.532,422.532 544,438.5C 536.092,461.384 519.925,473.218 495.5,474C 476.167,474.667 456.833,474.667 437.5,474C 410.952,469.784 396.452,454.284 394,427.5C 393.1,414.452 393.433,401.452 395,388.5C 397.972,376.55 404.806,367.55 415.5,361.5C 404.32,355.809 397.487,346.809 395,334.5C 393.038,318.824 393.038,303.157 395,287.5C 400.844,265.487 415.011,252.821 437.5,249.5 Z" />
    </g>
    <g>
        <path style="opacity:1" fill="#fdfdfd"
            d="M 628.5,249.5 C 648.169,249.333 667.836,249.5 687.5,250C 713.582,253.75 728.749,268.583 733,294.5C 733.167,316.333 733.333,338.167 733.5,360C 733.626,384.527 733.126,409.027 732,433.5C 729.149,447.322 721.982,458.155 710.5,466C 704.736,468.922 698.736,471.255 692.5,473C 671.194,474.557 649.861,474.89 628.5,474C 605.101,470.599 590.601,457.433 585,434.5C 583.873,409.694 583.373,384.86 583.5,360C 583.358,336.127 583.858,312.294 585,288.5C 591.198,266.131 605.698,253.131 628.5,249.5 Z" />
    </g>
    <g>
        <path style="opacity:1" fill="#010101"
            d="M 261.5,288.5 C 274.171,288.333 286.838,288.5 299.5,289C 305.553,290.053 309.387,293.553 311,299.5C 311.667,341.167 311.667,382.833 311,424.5C 309.567,429.598 306.4,433.098 301.5,435C 288.833,435.667 276.167,435.667 263.5,435C 257.873,434.043 254.04,430.876 252,425.5C 250.356,384.546 250.023,343.546 251,302.5C 252.085,295.928 255.585,291.261 261.5,288.5 Z" />
    </g>
    <g>
        <path style="opacity:1" fill="#030303"
            d="M 450.5,287.5 C 462.505,287.333 474.505,287.5 486.5,288C 495.259,288.452 500.425,292.952 502,301.5C 502.667,310.5 502.667,319.5 502,328.5C 500.764,336.531 496.264,341.364 488.5,343C 475.833,343.667 463.167,343.667 450.5,343C 442.988,341.19 438.822,336.357 438,328.5C 437.333,319.167 437.333,309.833 438,300.5C 439.682,293.653 443.849,289.32 450.5,287.5 Z" />
    </g>
    <g>
        <path style="opacity:1" fill="#010101"
            d="M 638.5,288.5 C 651.837,288.333 665.171,288.5 678.5,289C 684.465,291.095 687.965,295.262 689,301.5C 689.667,341.5 689.667,381.5 689,421.5C 688.27,427.136 685.436,431.303 680.5,434C 667.223,435.591 653.89,435.924 640.5,435C 635.217,434.385 631.717,431.551 630,426.5C 628.356,384.546 628.022,342.546 629,300.5C 630.194,294.819 633.36,290.819 638.5,288.5 Z" />
    </g>
    <g>
        <path style="opacity:1" fill="#fcfcfc"
            d="M 776.5,295.5 C 788.909,295.061 801.242,295.561 813.5,297C 814.701,297.903 815.535,299.069 816,300.5C 816.333,305.167 816.667,309.833 817,314.5C 822.339,305.405 830.172,299.571 840.5,297C 855.541,296.104 870.541,296.437 885.5,298C 905.037,304.533 916.537,318.033 920,338.5C 920.932,371.191 920.599,403.858 919,436.5C 913.918,456.917 901.085,469.083 880.5,473C 865.412,475.308 850.412,474.975 835.5,472C 827.418,468.582 821.252,463.082 817,455.5C 816.667,476.167 816.333,496.833 816,517.5C 815.065,520.102 813.232,521.602 810.5,522C 798.833,522.667 787.167,522.667 775.5,522C 774.333,520.833 773.167,519.667 772,518.5C 771.333,445.5 771.333,372.5 772,299.5C 773.397,297.93 774.897,296.596 776.5,295.5 Z" />
    </g>
    <g>
        <path style="opacity:1" fill="#020202"
            d="M 833.5,334.5 C 842.839,334.334 852.173,334.5 861.5,335C 867.704,335.844 872.204,339.01 875,344.5C 876.629,370.117 876.963,395.784 876,421.5C 875.077,428.081 871.577,432.581 865.5,435C 854.167,435.667 842.833,435.667 831.5,435C 824.43,433.052 819.93,428.552 818,421.5C 816.386,398.542 816.053,375.542 817,352.5C 818.914,343.09 824.414,337.09 833.5,334.5 Z" />
    </g>
    <g>
        <path style="opacity:1" fill="#040404"
            d="M 451.5,378.5 C 464.885,378.097 478.218,378.597 491.5,380C 497.558,382.938 501.058,387.771 502,394.5C 502.667,403.833 502.667,413.167 502,422.5C 500.372,431.064 495.205,435.564 486.5,436C 474.5,436.667 462.5,436.667 450.5,436C 443.225,434.391 439.058,429.891 438,422.5C 437.333,412.833 437.333,403.167 438,393.5C 439.61,385.731 444.11,380.731 451.5,378.5 Z" />
    </g>
    <g>
        <path style="opacity:1" fill="#fefefe"
            d="M 398.5,533.5 C 409.172,533.333 419.839,533.5 430.5,534C 431.333,534.833 432.167,535.667 433,536.5C 433.667,604.833 433.667,673.167 433,741.5C 432.167,742.333 431.333,743.167 430.5,744C 419.833,744.667 409.167,744.667 398.5,744C 397.667,743.167 396.833,742.333 396,741.5C 395.333,673.167 395.333,604.833 396,536.5C 397.045,535.627 397.878,534.627 398.5,533.5 Z" />
    </g>
    <g>
        <path style="opacity:1" fill="#fefefe"
            d="M 472.5,533.5 C 483.172,533.333 493.839,533.5 504.5,534C 505.333,534.833 506.167,535.667 507,536.5C 507.667,604.833 507.667,673.167 507,741.5C 506.5,742.667 505.667,743.5 504.5,744C 493.833,744.667 483.167,744.667 472.5,744C 471.667,743.167 470.833,742.333 470,741.5C 469.333,673.167 469.333,604.833 470,536.5C 471.045,535.627 471.878,534.627 472.5,533.5 Z" />
    </g>
    <g>
        <path style="opacity:1" fill="#f9f9f9"
            d="M 107.5,551.5 C 141.502,551.333 175.502,551.5 209.5,552C 211.333,552.5 212.5,553.667 213,555.5C 213.667,563.833 213.667,572.167 213,580.5C 212.535,581.931 211.701,583.097 210.5,584C 188.261,584.172 166.094,584.672 144,585.5C 143.333,602.5 143.333,619.5 144,636.5C 163.516,637.018 183.016,637.851 202.5,639C 203.126,639.75 203.626,640.584 204,641.5C 204.167,645.833 204.333,650.167 204.5,654.5C 204.614,659.609 204.114,664.609 203,669.5C 202.25,670.126 201.416,670.626 200.5,671C 181.503,671.5 162.503,671.667 143.5,671.5C 143.98,695.257 143.48,718.924 142,742.5C 141.25,743.126 140.416,743.626 139.5,744C 128.833,744.667 118.167,744.667 107.5,744C 106.299,743.097 105.465,741.931 105,740.5C 104.333,678.833 104.333,617.167 105,555.5C 105.662,554.016 106.496,552.683 107.5,551.5 Z" />
    </g>
    <g>
        <path style="opacity:1" fill="#fbfbfb"
            d="M 614.5,551.5 C 625.172,551.333 635.839,551.5 646.5,552C 647.333,552.833 648.167,553.667 649,554.5C 649.333,579.833 649.667,605.167 650,630.5C 659.258,631.16 668.592,631.494 678,631.5C 687.408,631.494 696.742,631.16 706,630.5C 706.018,604.746 706.685,579.08 708,553.5C 708.5,553 709,552.5 709.5,552C 720.167,551.333 730.833,551.333 741.5,552C 742.416,552.374 743.25,552.874 744,553.5C 745.16,584.916 745.66,616.416 745.5,648C 745.333,678.833 745.167,709.667 745,740.5C 744.626,741.416 744.126,742.25 743.5,743C 737.605,744.124 731.605,744.624 725.5,744.5C 720.167,744.333 714.833,744.167 709.5,744C 709,743.5 708.5,743 708,742.5C 706.851,716.914 706.018,691.247 705.5,665.5C 686.97,664.172 668.47,664.172 650,665.5C 649.982,691.254 649.315,716.92 648,742.5C 647.5,743 647,743.5 646.5,744C 635.833,744.667 625.167,744.667 614.5,744C 613.584,743.626 612.75,743.126 612,742.5C 611.333,679.5 611.333,616.5 612,553.5C 612.995,552.934 613.828,552.267 614.5,551.5 Z" />
    </g>
    <g>
        <path style="opacity:1" fill="#fbfbfb"
            d="M 786.5,551.5 C 817.196,551.064 847.863,551.564 878.5,553C 897.321,557.154 908.821,568.654 913,587.5C 913.667,626.833 913.667,666.167 913,705.5C 909.011,729.486 894.844,742.32 870.5,744C 842.5,744.667 814.5,744.667 786.5,744C 786,743.5 785.5,743 785,742.5C 783.341,680.249 783.008,617.916 784,555.5C 784.662,554.016 785.496,552.683 786.5,551.5 Z" />
    </g>
    <g>
        <path style="opacity:1" fill="#000000"
            d="M 823.5,584.5 C 836.837,584.333 850.171,584.5 863.5,585C 868.397,585.566 871.897,588.066 874,592.5C 875.647,628.106 875.98,663.773 875,699.5C 874.573,704.532 872.073,708.032 867.5,710C 859.559,711.099 851.559,711.599 843.5,711.5C 836.59,711.491 829.756,711.158 823,710.5C 822.173,668.429 822.34,626.429 823.5,584.5 Z" />
    </g>
    <g>
        <path style="opacity:1" fill="#fdfdfd"
            d="M 238.5,591.5 C 249.172,591.333 259.839,591.5 270.5,592C 271.667,592.5 272.5,593.333 273,594.5C 273.333,629.5 273.667,664.5 274,699.5C 275.09,705.588 278.59,709.421 284.5,711C 292.167,711.667 299.833,711.667 307.5,711C 316.121,709.379 320.954,704.213 322,695.5C 322.333,661.833 322.667,628.167 323,594.5C 323.833,593.667 324.667,592.833 325.5,592C 336.167,591.333 346.833,591.333 357.5,592C 358.416,592.374 359.25,592.874 360,593.5C 360.83,643.404 360.664,693.237 359.5,743C 348.264,744.622 336.931,744.955 325.5,744C 324.299,743.097 323.465,741.931 323,740.5C 322.667,736.5 322.333,732.5 322,728.5C 317.062,737.231 309.562,742.398 299.5,744C 290.167,744.667 280.833,744.667 271.5,744C 249.408,739.571 237.575,726.071 236,703.5C 235.333,667.167 235.333,630.833 236,594.5C 237.045,593.627 237.878,592.627 238.5,591.5 Z" />
    </g>
</svg>
