<?xml version="1.0" encoding="UTF-8"?><!DOCTYPE svg PUBLIC "-//W3C//DTD SVG 1.1//EN"
    "http://www.w3.org/Graphics/SVG/1.1/DTD/svg11.dtd">
<svg xmlns="http://www.w3.org/2000/svg" version="1.1" width="1000px" height="1000px"
    style="shape-rendering:geometricPrecision; text-rendering:geometricPrecision; image-rendering:optimizeQuality; fill-rule:evenodd; clip-rule:evenodd"
    xmlns:xlink="http://www.w3.org/1999/xlink">
    <g>
        <path style="opacity:1" fill="#fefefe"
            d="M 128.5,225.5 C 178.168,225.333 227.834,225.5 277.5,226C 278.931,226.465 280.097,227.299 281,228.5C 281.667,243.833 281.667,259.167 281,274.5C 254.225,341.384 226.892,408.051 199,474.5C 197.108,478.058 194.275,480.558 190.5,482C 175.167,482.667 159.833,482.667 144.5,482C 143.101,480.938 142.101,479.605 141.5,478C 169.9,409.203 198.566,340.537 227.5,272C 194.833,271.667 162.167,271.333 129.5,271C 127.667,270.5 126.5,269.333 126,267.5C 125.333,254.5 125.333,241.5 126,228.5C 127.045,227.627 127.878,226.627 128.5,225.5 Z" />
    </g>
    <g>
        <path style="opacity:1" fill="#fdfdfd"
            d="M 358.5,225.5 C 377.836,225.333 397.17,225.5 416.5,226C 446.438,229.939 463.938,246.772 469,276.5C 469.667,289.833 469.667,303.167 469,316.5C 466.125,333.754 457.958,347.921 444.5,359C 418.372,380.792 392.539,402.959 367,425.5C 365.646,429.363 365.146,433.363 365.5,437.5C 398.502,437.333 431.502,437.5 464.5,438C 466.286,438.785 467.786,439.951 469,441.5C 469.667,453.833 469.667,466.167 469,478.5C 467.786,480.049 466.286,481.215 464.5,482C 414.167,482.667 363.833,482.667 313.5,482C 312.069,481.535 310.903,480.701 310,479.5C 308.376,462.567 308.043,445.567 309,428.5C 312.079,414.746 319.245,403.579 330.5,395C 355.5,374 380.5,353 405.5,332C 419.075,318.57 423.575,302.403 419,283.5C 417.712,276.21 413.545,271.377 406.5,269C 394.158,267.023 381.825,267.023 369.5,269C 363.836,271.332 360.336,275.499 359,281.5C 358.667,289.833 358.333,298.167 358,306.5C 357.293,308.081 356.46,309.581 355.5,311C 347.933,312.135 340.266,312.635 332.5,312.5C 325.5,312.333 318.5,312.167 311.5,312C 310.584,311.626 309.75,311.126 309,310.5C 307.375,298.596 307.042,286.596 308,274.5C 313.911,246.754 330.744,230.42 358.5,225.5 Z" />
    </g>
    <g>
        <path style="opacity:1" fill="#fefefe"
            d="M 563.5,225.5 C 583.836,225.333 604.169,225.5 624.5,226C 654.595,228.761 672.761,244.928 679,274.5C 679.667,327.167 679.667,379.833 679,432.5C 672.55,462.995 653.717,479.495 622.5,482C 602.5,482.667 582.5,482.667 562.5,482C 531.14,478.307 513.307,460.807 509,429.5C 508.833,404 508.667,378.5 508.5,353C 508.355,325.794 508.855,298.628 510,271.5C 517.369,243.911 535.202,228.578 563.5,225.5 Z" />
    </g>
    <g>
        <path style="opacity:1" fill="#000000"
            d="M 573.5,269.5 C 588.217,269.087 602.884,269.587 617.5,271C 624.01,273.167 627.843,277.667 629,284.5C 629.667,330.167 629.667,375.833 629,421.5C 628.18,431.653 622.68,437.153 612.5,438C 599.833,438.667 587.167,438.667 574.5,438C 565.863,435.919 561.03,430.419 560,421.5C 559.333,375.833 559.333,330.167 560,284.5C 561.573,276.765 566.073,271.765 573.5,269.5 Z" />
    </g>
    <g>
        <path style="opacity:1" fill="#fdfdfd"
            d="M 727.5,278.5 C 741.837,278.333 756.171,278.5 770.5,279C 772.049,280.214 773.215,281.714 774,283.5C 774.171,288.864 774.671,294.198 775.5,299.5C 781.401,289.447 790.068,282.947 801.5,280C 818.555,277.814 835.555,278.148 852.5,281C 878.651,289.079 892.484,306.912 894,334.5C 894.667,364.833 894.667,395.167 894,425.5C 893.136,443.725 885.969,458.892 872.5,471C 857.404,480.397 840.904,484.231 823,482.5C 808.39,484.182 795.223,480.682 783.5,472C 780.642,468.642 777.975,465.142 775.5,461.5C 774.667,484.826 774.167,508.16 774,531.5C 773.89,533.848 772.723,535.348 770.5,536C 756.167,536.667 741.833,536.667 727.5,536C 725.667,535.5 724.5,534.333 724,532.5C 723.333,449.167 723.333,365.833 724,282.5C 725.376,281.295 726.542,279.962 727.5,278.5 Z" />
    </g>
    <g>
        <path style="opacity:1" fill="#020202"
            d="M 794.5,322.5 C 805.172,322.333 815.839,322.5 826.5,323C 836,324.5 841.5,330 843,339.5C 843.667,366.833 843.667,394.167 843,421.5C 842.128,429.368 837.961,434.534 830.5,437C 818.549,438.557 806.549,438.891 794.5,438C 785.207,436.042 779.04,430.542 776,421.5C 774.389,395.536 774.056,369.536 775,343.5C 777.246,332.424 783.746,325.424 794.5,322.5 Z" />
    </g>
    <g>
        <path style="opacity:1" fill="#fefefe"
            d="M 295.5,534.5 C 309.837,534.333 324.171,534.5 338.5,535C 339.667,536.167 340.833,537.333 342,538.5C 342.333,572.167 342.667,605.833 343,639.5C 343.5,640 344,640.5 344.5,641C 368.5,641.667 392.5,641.667 416.5,641C 417.333,640.167 418.167,639.333 419,638.5C 419.333,604.833 419.667,571.167 420,537.5C 420.903,536.299 422.069,535.465 423.5,535C 437.5,534.333 451.5,534.333 465.5,535C 466.931,535.465 468.097,536.299 469,537.5C 469.667,620.833 469.667,704.167 469,787.5C 468.626,788.416 468.126,789.25 467.5,790C 452.927,791.633 438.26,791.966 423.5,791C 421.667,790.5 420.5,789.333 420,787.5C 419.667,754.167 419.333,720.833 419,687.5C 418.5,687 418,686.5 417.5,686C 392.833,685.333 368.167,685.333 343.5,686C 342.983,720.156 342.15,754.322 341,788.5C 339.829,789.893 338.329,790.727 336.5,791C 322.833,791.667 309.167,791.667 295.5,791C 294.333,789.833 293.167,788.667 292,787.5C 291.333,704.5 291.333,621.5 292,538.5C 293.032,536.973 294.199,535.64 295.5,534.5 Z" />
    </g>
    <g>
        <path style="opacity:1" fill="#fdfdfd"
            d="M 525.5,534.5 C 566.201,534.035 606.868,534.535 647.5,536C 676.012,542.515 691.845,560.348 695,589.5C 695.667,637.833 695.667,686.167 695,734.5C 691.337,769.163 672.171,787.996 637.5,791C 600.5,791.667 563.5,791.667 526.5,791C 525.069,790.535 523.903,789.701 523,788.5C 521.342,705.557 521.008,622.557 522,539.5C 522.997,537.677 524.164,536.01 525.5,534.5 Z" />
    </g>
    <g>
        <path style="opacity:1" fill="#020202"
            d="M 574.5,578.5 C 592.17,578.333 609.836,578.5 627.5,579C 634.96,579.8 640.127,583.633 643,590.5C 644.647,637.121 644.98,683.788 644,730.5C 642.541,739.959 637.041,745.459 627.5,747C 609.833,747.667 592.167,747.667 574.5,747C 573.874,746.25 573.374,745.416 573,744.5C 572.333,689.833 572.333,635.167 573,580.5C 573.717,579.956 574.217,579.289 574.5,578.5 Z" />
    </g>
</svg>
