<svg width="40" height="40" viewBox="0 0 40 40" fill="none" xmlns="http://www.w3.org/2000/svg">
<g clip-path="url(#clip0_2189_11085)">
<path opacity="0.5" d="M9.66008 12.2267L4.54813 13.7564C7.99626 5.22199 17.7101 1.09863 26.2446 4.54679C34.7791 7.99492 38.9024 17.7089 35.4543 26.2433C32.0061 34.7778 22.2922 38.901 13.7578 35.4529C7.42101 32.8927 3.5161 26.8783 3.33659 20.4571" stroke="white" stroke-width="3.75" stroke-linecap="round" stroke-linejoin="round"/>
<path d="M23.3327 14.1667H18.9333C18.5747 14.1667 18.2562 14.3963 18.1427 14.7366L17.0317 18.0699C16.8517 18.6096 17.2533 19.1667 17.8222 19.1667H19.9993C21.8403 19.1667 23.3327 20.6591 23.3327 22.5001C23.3327 24.3411 21.8403 25.8334 19.9993 25.8334H16.666" stroke="white" stroke-width="3.75" stroke-linecap="round"/>
</g>
<defs>
<clipPath id="clip0_2189_11085">
<rect width="40" height="40" fill="white"/>
</clipPath>
</defs>
</svg>
