<svg width="35" height="35" viewBox="0 0 35 35" fill="none" xmlns="http://www.w3.org/2000/svg">
    <path fill-rule="evenodd" clip-rule="evenodd"
        d="M7.29297 17.5004C7.29332 12.6302 10.7338 8.43857 15.5104 7.48877C20.287 6.53898 25.0694 9.0956 26.9328 13.5951C28.7962 18.0946 27.2218 23.2839 23.1723 25.9893C19.1228 28.6948 13.7261 28.163 10.2826 24.7191C8.36816 22.8045 7.29277 20.2078 7.29297 17.5004Z"
        stroke="white" stroke-width="1.5" stroke-linecap="round" stroke-linejoin="round" />
    <path
        d="M13.1416 20.7965C12.8487 21.0893 12.8486 21.5642 13.1414 21.8571C13.4343 22.1501 13.9092 22.1502 14.2021 21.8573L13.1416 20.7965ZM18.0302 18.0307C18.3232 17.7378 18.3233 17.263 18.0304 16.97C17.7376 16.6771 17.2627 16.677 16.9698 16.9698L18.0302 18.0307ZM16.9695 16.9701C16.6767 17.2631 16.6769 17.738 16.9699 18.0308C17.2629 18.3236 17.7378 18.3234 18.0305 18.0304L16.9695 16.9701ZM21.8572 14.2008C22.15 13.9078 22.1498 13.4329 21.8568 13.1401C21.5638 12.8473 21.0889 12.8475 20.7961 13.1405L21.8572 14.2008ZM18.0302 16.9698C17.7373 16.677 17.2624 16.6771 16.9696 16.97C16.6767 17.263 16.6768 17.7378 16.9698 18.0307L18.0302 16.9698ZM20.7979 21.8573C21.0908 22.1502 21.5657 22.1501 21.8586 21.8571C22.1514 21.5642 22.1513 21.0893 21.8584 20.7965L20.7979 21.8573ZM16.9696 18.0305C17.2624 18.3234 17.7373 18.3235 18.0302 18.0307C18.3232 17.7378 18.3233 17.263 18.0304 16.97L16.9696 18.0305ZM14.2023 13.1404C13.9095 12.8475 13.4346 12.8474 13.1416 13.1402C12.8487 13.4331 12.8486 13.9079 13.1414 14.2009L14.2023 13.1404ZM14.2021 21.8573L18.0302 18.0307L16.9698 16.9698L13.1416 20.7965L14.2021 21.8573ZM18.0305 18.0304L21.8572 14.2008L20.7961 13.1405L16.9695 16.9701L18.0305 18.0304ZM16.9698 18.0307L20.7979 21.8573L21.8584 20.7965L18.0302 16.9698L16.9698 18.0307ZM18.0304 16.97L14.2023 13.1404L13.1414 14.2009L16.9696 18.0305L18.0304 16.97Z"
        fill="white" />
</svg>
