<svg width="40" height="40" viewBox="0 0 40 40" fill="none" xmlns="http://www.w3.org/2000/svg">
<g clip-path="url(#clip0_2189_11082)">
<path opacity="0.5" d="M30.5506 12.0717L35.7648 13.632C32.2477 4.92681 22.3395 0.721062 13.6344 4.23819C4.92925 7.75528 0.72342 17.6634 4.24054 26.3686C7.75764 35.0737 17.6659 39.2795 26.371 35.7624C32.8345 33.151 36.8175 27.0163 37.0006 20.4668" stroke="white" stroke-width="3.75" stroke-linecap="round" stroke-linejoin="round"/>
<path d="M23.3327 14.1667H18.9333C18.5747 14.1667 18.2562 14.3963 18.1427 14.7366L17.0317 18.0699C16.8517 18.6096 17.2533 19.1667 17.8222 19.1667H19.9993C21.8403 19.1667 23.3327 20.6591 23.3327 22.5001C23.3327 24.3411 21.8403 25.8334 19.9993 25.8334H16.666" stroke="white" stroke-width="3.75" stroke-linecap="round"/>
</g>
<defs>
<clipPath id="clip0_2189_11082">
<rect width="40" height="40" fill="white"/>
</clipPath>
</defs>
</svg>
