<svg width="40" height="40" viewBox="0 0 40 40" fill="none" xmlns="http://www.w3.org/2000/svg">
    <path
        d="M5 5L35 35M28.3333 16.6667V13.3333C28.3333 8.73097 24.6023 5 20 5C18.3805 5 16.8688 5.46198 15.5898 6.26135M11.8064 11.8056C11.7146 12.3009 11.6667 12.8115 11.6667 13.3333V16.7147M11.6667 16.7147C10.6861 16.7745 9.99048 16.9092 9.39672 17.2117C8.4559 17.691 7.691 18.4558 7.21163 19.3967C6.66667 20.4663 6.66667 21.8663 6.66667 24.6667V27C6.66667 29.8003 6.66667 31.2003 7.21163 32.27C7.691 33.2108 8.4559 33.9757 9.39672 34.455C10.4663 35 11.8664 35 14.6667 35H25.3333C28.1337 35 29.5337 35 30.6033 34.455C31.4305 34.0335 32.1217 33.3913 32.6023 32.603M11.6667 16.7147C12.4524 16.6667 13.421 16.6667 14.6667 16.6667H16.6667M33.333 24.0038C33.3297 21.6385 33.2885 20.3783 32.7883 19.3967C32.309 18.4558 31.5442 17.691 30.6033 17.2117C29.6217 16.7115 28.3615 16.6703 25.9962 16.667"
        stroke="white" stroke-width="3" stroke-linecap="round" stroke-linejoin="round" />
</svg>
