<svg width="30" height="30" viewBox="0 0 40 40" fill="none" xmlns="http://www.w3.org/2000/svg">
    <path
        d="M19.9993 24.1667V27.5M11.666 16.7147C12.4517 16.6667 13.4203 16.6667 14.666 16.6667H25.3327C26.5783 16.6667 27.547 16.6667 28.3327 16.7147M11.666 16.7147C10.6855 16.7745 9.98983 16.9092 9.39607 17.2117C8.45525 17.691 7.69035 18.4558 7.21098 19.3967C6.66602 20.4663 6.66602 21.8663 6.66602 24.6667V27C6.66602 29.8003 6.66602 31.2003 7.21098 32.27C7.69035 33.2108 8.45525 33.9757 9.39607 34.455C10.4656 35 11.8657 35 14.666 35H25.3327C28.133 35 29.533 35 30.6027 34.455C31.5435 33.9757 32.3083 33.2108 32.7877 32.27C33.3327 31.2003 33.3327 29.8003 33.3327 27V24.6667C33.3327 21.8663 33.3327 20.4663 32.7877 19.3967C32.3083 18.4558 31.5435 17.691 30.6027 17.2117C30.0088 16.9092 29.3132 16.7745 28.3327 16.7147M11.666 16.7147V13.3333C11.666 8.73097 15.397 5 19.9993 5C24.6017 5 28.3327 8.73097 28.3327 13.3333V16.7147"
        stroke="white" stroke-width="3" stroke-linecap="round" stroke-linejoin="round" />
</svg>
