<svg width="80" height="80" viewBox="0 0 80 80" fill="none" xmlns="http://www.w3.org/2000/svg">
<path opacity="0.5" d="M73.3327 40.0001C73.3327 58.4094 58.4087 73.3334 39.9993 73.3334C21.5898 73.3334 6.66602 58.4094 6.66602 40.0001C6.66602 21.5906 21.5898 6.66675 39.9993 6.66675C58.4087 6.66675 73.3327 21.5906 73.3327 40.0001Z" fill="white"/>
<path d="M26.9198 28.7245C26.666 29.337 26.666 30.1136 26.666 31.6667V48.3334C26.666 49.8864 26.666 50.6631 26.9198 51.2757C27.2581 52.0924 27.907 52.7414 28.7237 53.0797C29.3363 53.3334 30.1129 53.3334 31.666 53.3334C33.2191 53.3334 33.9957 53.3334 34.6083 53.0797C35.425 52.7414 36.074 52.0924 36.4123 51.2757C36.666 50.6631 36.666 49.8864 36.666 48.3334V31.6667C36.666 30.1136 36.666 29.337 36.4123 28.7245C36.074 27.9077 35.425 27.2588 34.6083 26.9205C33.9957 26.6667 33.2191 26.6667 31.666 26.6667C30.1129 26.6667 29.3363 26.6667 28.7237 26.9205C27.907 27.2588 27.2581 27.9077 26.9198 28.7245Z" fill="white"/>
<path d="M43.5877 28.7245C43.334 29.337 43.334 30.1136 43.334 31.6667V48.3334C43.334 49.8864 43.334 50.6631 43.5877 51.2757C43.926 52.0924 44.575 52.7414 45.3917 53.0797C46.0043 53.3334 46.781 53.3334 48.334 53.3334C49.887 53.3334 50.6637 53.3334 51.2763 53.0797C52.093 52.7414 52.742 52.0924 53.0803 51.2757C53.334 50.6631 53.334 49.8864 53.334 48.3334V31.6667C53.334 30.1136 53.334 29.337 53.0803 28.7245C52.742 27.9077 52.093 27.2588 51.2763 26.9205C50.6637 26.6667 49.887 26.6667 48.334 26.6667C46.781 26.6667 46.0043 26.6667 45.3917 26.9205C44.575 27.2588 43.926 27.9077 43.5877 28.7245Z" fill="white"/>
</svg>
