<svg width="30" height="30" viewBox="0 0 40 40" fill="none" xmlns="http://www.w3.org/2000/svg">
    <path fill-rule="evenodd" clip-rule="evenodd"
        d="M18.3432 3.33325H21.6582C23.9682 3.33324 25.8053 3.33324 27.2866 3.45625C28.8038 3.58224 30.0965 3.84584 31.277 4.45912C33.1035 5.40787 34.5926 6.89707 35.5415 8.7235C36.1548 9.90414 36.4183 11.1968 36.5443 12.7139C36.6673 14.1953 36.6673 16.0324 36.6673 18.3424V21.6574C36.6673 23.9674 36.6673 25.8046 36.5443 27.2859C36.4183 28.8031 36.1548 30.0958 35.5415 31.2763C34.5926 33.1028 33.1035 34.5919 31.277 35.5407C30.0965 36.1541 28.8038 36.4176 27.2866 36.5436C25.8053 36.6666 23.9682 36.6666 21.6582 36.6666H18.3432C16.0332 36.6666 14.196 36.6666 12.7146 36.5436C11.1975 36.4176 9.90487 36.1541 8.72423 35.5407C6.8978 34.5919 5.4086 33.1028 4.45985 31.2763C3.84657 30.0958 3.58297 28.8031 3.45698 27.2859C3.33397 25.8046 3.33397 23.9674 3.33398 21.6574V18.3424C3.33397 16.0324 3.33397 14.1953 3.45698 12.7139C3.58297 11.1968 3.84657 9.90414 4.45985 8.7235C5.4086 6.89707 6.8978 5.40787 8.72423 4.45912C9.90487 3.84584 11.1975 3.58224 12.7146 3.45625C14.196 3.33324 16.0331 3.33324 18.3432 3.33325ZM12.9905 6.77815C11.6832 6.8867 10.8864 7.09222 10.2608 7.41717C9.0432 8.04967 8.0504 9.04247 7.4179 10.2601C7.09295 10.8856 6.88743 11.6825 6.77888 12.9898C6.66865 14.317 6.66732 16.0157 6.66732 18.4166V21.5833C6.66732 23.9841 6.66865 25.6828 6.77888 27.0101C6.88743 28.3174 7.09295 29.1143 7.4179 29.7398C8.0504 30.9574 9.0432 31.9503 10.2608 32.5828C10.8864 32.9076 11.6832 33.1131 12.9905 33.2218C14.3177 33.3319 16.0165 33.3333 18.4173 33.3333H21.584C23.9848 33.3333 25.6835 33.3319 27.0108 33.2218C28.3182 33.1131 29.115 32.9076 29.7405 32.5828C30.9582 31.9503 31.951 30.9574 32.5835 29.7398C32.9083 29.1143 33.1138 28.3174 33.2225 27.0101C33.3326 25.6828 33.334 23.9841 33.334 21.5833V18.4166C33.334 16.0157 33.3326 14.317 33.2225 12.9898C33.1138 11.6825 32.9083 10.8856 32.5835 10.2601C31.951 9.04247 30.9582 8.04967 29.7405 7.41717C29.115 7.09222 28.3182 6.8867 27.0108 6.77815C25.6835 6.66792 23.9848 6.66659 21.584 6.66659H18.4173C16.0165 6.66659 14.3177 6.66792 12.9905 6.77815ZM19.7146 11.2622C20.6352 11.2622 21.3813 12.0084 21.3813 12.9289V21.2074L27.2595 23.4421C28.12 23.7691 28.5523 24.7318 28.2252 25.5921C27.8982 26.4526 26.9355 26.8849 26.0752 26.5578L19.1225 23.9149C18.4756 23.6689 18.048 23.0489 18.048 22.3569V12.9289C18.048 12.0084 18.7942 11.2622 19.7146 11.2622Z"
        fill="white" />
</svg>
