<svg width="20" height="20" viewBox="0 0 20 20" fill="none" xmlns="http://www.w3.org/2000/svg">
    <path
        d="M17.4395 2.83594H2.54102C1.88672 2.83594 1.35547 3.36719 1.35547 4.02148V13.8535C1.35547 14.5059 1.88672 15.0391 2.54102 15.0391H17.4395C18.0937 15.0391 18.625 14.5078 18.625 13.8535V4.01953C18.625 3.36719 18.0918 2.83594 17.4395 2.83594ZM17.6094 13.8535C17.6094 13.9473 17.5332 14.0234 17.4395 14.0234H2.54102C2.44727 14.0234 2.37109 13.9473 2.37109 13.8535V4.01953C2.37109 3.92578 2.44727 3.84961 2.54102 3.84961H17.4395C17.5332 3.84961 17.6094 3.92578 17.6094 4.01953V13.8535ZM14.0488 16.0918H5.92383C5.64258 16.0918 5.41602 16.3184 5.41602 16.5996C5.41602 16.8809 5.64258 17.1074 5.92383 17.1074H14.0508C14.332 17.1074 14.5586 16.8809 14.5586 16.5996C14.5586 16.3184 14.3301 16.0918 14.0488 16.0918ZM12.4238 8.57617L9.03711 6.54492C8.88086 6.45117 8.68555 6.44922 8.52539 6.53906C8.36719 6.62891 8.26758 6.79883 8.26758 6.98047V11.043C8.26758 11.2266 8.36523 11.3945 8.52539 11.4844C8.60352 11.5293 8.68945 11.5508 8.77539 11.5508C8.86523 11.5508 8.95703 11.5254 9.03711 11.4785L12.4238 9.44727C12.5762 9.35547 12.6699 9.18945 12.6699 9.01172C12.6699 8.83398 12.5762 8.66797 12.4238 8.57617Z"
        fill="white" />
</svg>
