<svg width="24" height="24" viewBox="0 0 24 24" fill="none" xmlns="http://www.w3.org/2000/svg">
<path opacity="0.977974" d="M6.99121 2.99829C4.78221 2.99829 2.99121 4.78929 2.99121 6.99828V16.9983C2.99121 19.2073 4.78221 20.9983 6.99121 20.9983H16.9912C19.2002 20.9983 20.9912 19.2073 20.9912 16.9983V12.9983C20.9912 12.4463 20.5432 11.9983 19.9912 11.9983C19.4392 11.9983 18.9912 12.4463 18.9912 12.9983V16.9983C18.9912 18.1033 18.0962 18.9983 16.9912 18.9983H6.99121C5.88621 18.9983 4.99121 18.1033 4.99121 16.9983V6.99828C4.99121 5.89329 5.88621 4.99829 6.99121 4.99829H14.9912C15.5432 4.99829 15.9912 4.55029 15.9912 3.99829C15.9912 3.44629 15.5432 2.99829 14.9912 2.99829H6.99121ZM20.9912 3.99829C20.7352 3.99829 20.4672 4.08829 20.2722 4.27929L11.5532 12.8423C11.2962 13.0953 11.0372 13.0773 10.8352 12.7793L9.83521 11.3103C9.52921 10.8593 8.88722 10.7283 8.42922 11.0293C7.97022 11.3303 7.84122 11.9533 8.14722 12.4043L9.14722 13.8733C10.0482 15.2023 11.8112 15.3783 12.9602 14.2483L21.7102 5.65429C22.1002 5.27129 22.1002 4.66329 21.7102 4.27929C21.5152 4.08729 21.2472 3.99829 20.9912 3.99829Z" fill="white"/>
</svg>
