<svg width="20" height="20" viewBox="0 0 20 20" fill="none" xmlns="http://www.w3.org/2000/svg">
<path d="M19.9591 18.1528V15.2391V8.32857V7.44585V6.98406C19.9591 6.12178 19.2767 5.41479 18.443 5.41479H13.2611C12.4275 5.41479 11.745 6.12178 11.745 6.98406V7.44585V18.1528V18.4307C11.745 19.293 12.4275 20 13.2611 20H18.443C19.2767 20 19.9591 19.293 19.9591 18.4307V18.1528ZM16.5059 19.3421H15.0429C14.8263 19.3421 14.6506 19.1582 14.6506 18.9334C14.6506 18.7086 14.8263 18.5247 15.0429 18.5247H16.5059C16.7225 18.5247 16.8982 18.7086 16.8982 18.9334C16.8982 19.1582 16.7225 19.3421 16.5059 19.3421ZM18.5819 17.8709C18.5738 17.8709 18.5615 17.8749 18.5533 17.8749H13.1508C13.1426 17.8749 13.1304 17.8709 13.1222 17.8709V7.55619C13.1304 7.55619 13.1426 7.5521 13.1508 7.5521H18.5533C18.5615 7.5521 18.5697 7.55619 18.5779 7.55619V17.8709H18.5819ZM4.29914 20H6.86555H10.8255C10.5599 19.5382 10.4046 19.0029 10.4046 18.4307V17.4949H8.94565H1.70821V2.17H12.8157V4.04577C12.9628 4.02534 13.1099 4.00899 13.2611 4.00899H14.5035V2.09644V1.83899V1.61013C14.5035 0.944013 14.1112 0.371884 13.5513 0.126686C13.3633 0.044953 13.159 0 12.9424 0H6.86964L1.5611 0C1.3445 0 1.14017 0.044953 0.952186 0.126686C0.392317 0.371884 0 0.944013 0 1.61013V1.90029V16.4242V18.3899C0 19.2808 0.698815 20 1.55701 20H4.29914ZM6.51819 18.3735H7.9812C8.19779 18.3735 8.37352 18.5574 8.37352 18.7822C8.37352 19.0069 8.19779 19.1908 7.9812 19.1908H6.51819C6.30159 19.1908 6.12587 19.0069 6.12587 18.7822C6.12587 18.5574 6.30159 18.3735 6.51819 18.3735Z" fill="white"/>
</svg>
