<svg width="24" height="24" viewBox="0 0 24 24" fill="none" xmlns="http://www.w3.org/2000/svg">
<path d="M6.01368 3.9978C3.80467 3.9978 2.01367 5.7888 2.01367 7.9978V15.9978C2.01367 18.2068 3.80467 19.9978 6.01368 19.9978H18.0137C20.2227 19.9978 22.0137 18.2068 22.0137 15.9978V7.9978C22.0137 5.7888 20.2227 3.9978 18.0137 3.9978H6.01368ZM6.01368 5.9978H18.0137C19.0217 5.9978 19.8547 6.73781 19.9927 7.70781C19.0347 8.60081 17.6107 9.6968 16.6697 10.3728C14.5047 11.9278 12.5997 12.9978 12.0137 12.9978C11.4277 12.9978 9.52268 11.9288 7.35767 10.3728C6.41667 9.6968 5.49168 8.9658 4.79468 8.3728C4.49768 8.1198 4.27767 7.9158 4.10767 7.7478C4.24567 6.7778 5.00568 5.9978 6.01368 5.9978ZM4.02368 10.3518C6.56169 12.4048 10.2807 14.9858 12.0137 14.9978C13.1427 15.0058 15.0737 13.9278 17.0437 12.5668C18.0627 11.8618 19.1967 11.0248 20.0147 10.3378L20.0137 15.9978C20.0137 17.1028 19.1187 17.9978 18.0137 17.9978H6.01368C4.90868 17.9978 4.01367 17.1028 4.01367 15.9978L4.02368 10.3518Z" fill="white"/>
</svg>
