<svg width="40" height="40" viewBox="0 0 40 40" fill="none" xmlns="http://www.w3.org/2000/svg">
    <path opacity="0.6"
        d="M14.9993 36.6667H16.666C21.38 36.6667 23.7371 36.6667 25.2015 35.2023C26.666 33.7378 26.666 31.3808 26.666 26.6667L26.666 13.3334C26.666 8.61942 26.666 6.26242 25.2015 4.79792C23.7371 3.33342 21.38 3.33342 16.666 3.33342H14.9993C10.2853 3.33342 7.92835 3.33342 6.46385 4.79792C4.99935 6.26242 4.99935 8.61942 4.99935 13.3334L4.99935 26.6667C4.99935 31.3808 4.99935 33.7378 6.46385 35.2023C7.92835 36.6667 10.2853 36.6667 14.9993 36.6667Z"
        fill="#FF0000" />
    <path opacity="0.4"
        d="M20.4118 27.1667C20.4118 29.7292 20.4118 31.5952 20 33H20.4118C27.2887 33 30.7272 33 32.8636 31.7796C35 30.5592 35 28.595 35 24.6667V16.3333C35 12.405 35 10.4408 32.8636 9.22034C30.7272 8 27.2887 8 20.4118 8H20C20.4118 9.40483 20.4118 11.2708 20.4118 13.8333V19.25V21.75V27.1667Z"
        fill="#FF0000" />
    <path fill-rule="evenodd" clip-rule="evenodd"
        d="M32.5499 20.8838C33.0381 20.3956 33.0381 19.6043 32.5499 19.1161L29.2166 15.7828C28.7284 15.2946 27.937 15.2946 27.4488 15.7828C26.9607 16.2709 26.9607 17.0623 27.4488 17.5504L28.6483 18.7499H16.666C15.9757 18.7499 15.416 19.3096 15.416 19.9999C15.416 20.6903 15.9757 21.2499 16.666 21.2499H28.6483L27.4488 22.4494C26.9607 22.9376 26.9607 23.729 27.4488 24.2171C27.937 24.7053 28.7284 24.7053 29.2166 24.2171L32.5499 20.8838Z"
        fill="#FF0000" />
</svg>
