<?xml version="1.0" encoding="UTF-8"?><!DOCTYPE svg PUBLIC "-//W3C//DTD SVG 1.1//EN"
    "http://www.w3.org/Graphics/SVG/1.1/DTD/svg11.dtd">
<svg xmlns="http://www.w3.org/2000/svg" version="1.1" width="1536px" height="1536px"
    style="shape-rendering:geometricPrecision; text-rendering:geometricPrecision; image-rendering:optimizeQuality; fill-rule:evenodd; clip-rule:evenodd"
    xmlns:xlink="http://www.w3.org/1999/xlink">
    <g>
        <path style="opacity:0.998" fill="#000000"
            d="M 427.5,191.5 C 654.167,191.333 880.834,191.5 1107.5,192C 1172.29,200.781 1221.46,232.947 1255,288.5C 1268.02,311.884 1276.02,336.884 1279,363.5C 1279.5,542.5 1279.67,721.5 1279.5,900.5C 1236.83,900.5 1194.17,900.5 1151.5,900.5C 1151.67,728.166 1151.5,555.833 1151,383.5C 1148.99,352.297 1133.15,331.797 1103.5,322C 1098.22,320.974 1092.88,320.307 1087.5,320C 874.167,319.333 660.833,319.333 447.5,320C 416.297,322.014 395.797,337.847 386,367.5C 384.974,372.785 384.307,378.118 384,383.5C 383.333,660.833 383.333,938.167 384,1215.5C 386.014,1246.7 401.847,1267.2 431.5,1277C 436.785,1278.03 442.118,1278.69 447.5,1279C 586.5,1279.5 725.5,1279.67 864.5,1279.5C 864.5,1322.17 864.5,1364.83 864.5,1407.5C 718.833,1407.67 573.166,1407.5 427.5,1407C 362.709,1398.22 313.542,1366.05 280,1310.5C 266.983,1287.12 258.983,1262.12 256,1235.5C 255.333,944.833 255.333,654.167 256,363.5C 263.542,304.54 291.376,258.04 339.5,224C 366.506,206.655 395.84,195.822 427.5,191.5 Z" />
    </g>
    <g>
        <path style="opacity:0.997" fill="#000000"
            d="M 564.5,511.5 C 699.834,511.333 835.167,511.5 970.5,512C 997.243,517.454 1014.41,533.287 1022,559.5C 1027.97,594.05 1015.47,619.217 984.5,635C 979.946,636.741 975.279,638.074 970.5,639C 835.167,639.667 699.833,639.667 564.5,639C 535.667,632.833 518.167,615.333 512,586.5C 508.552,557.906 518.719,535.739 542.5,520C 549.607,516.248 556.94,513.415 564.5,511.5 Z" />
    </g>
    <g>
        <path style="opacity:0.997" fill="#000000"
            d="M 564.5,767.5 C 699.834,767.333 835.167,767.5 970.5,768C 997.243,773.454 1014.41,789.287 1022,815.5C 1027.97,850.05 1015.47,875.217 984.5,891C 979.946,892.741 975.279,894.074 970.5,895C 835.167,895.667 699.833,895.667 564.5,895C 535.667,888.833 518.167,871.333 512,842.5C 508.552,813.906 518.719,791.739 542.5,776C 549.607,772.248 556.94,769.415 564.5,767.5 Z" />
    </g>
    <g>
        <path style="opacity:0.952" fill="#070707"
            d="M 1371.5,1017.5 C 1375.6,1021.6 1380.27,1024.94 1385.5,1027.5C 1385.5,1029.5 1386.5,1030.5 1388.5,1030.5C 1388.41,1031.5 1388.75,1032.33 1389.5,1033C 1397.67,1038.68 1405.01,1045.18 1411.5,1052.5C 1416.02,1057.19 1420.36,1062.02 1424.5,1067C 1423.29,1068.11 1423.62,1068.61 1425.5,1068.5C 1426.47,1071.13 1428.14,1073.13 1430.5,1074.5C 1432.81,1078.45 1435.15,1082.45 1437.5,1086.5C 1437.96,1087.3 1438.62,1087.63 1439.5,1087.5C 1446.19,1099.3 1452.69,1111.3 1459,1123.5C 1481.14,1175.41 1485.81,1229.07 1473,1284.5C 1461.94,1322.98 1443.94,1357.31 1419,1387.5C 1408.58,1399.42 1397.41,1410.42 1385.5,1420.5C 1353.95,1444.82 1318.95,1462.49 1280.5,1473.5C 1194.56,1493.58 1115.56,1479.25 1043.5,1430.5C 1039.4,1426.4 1034.73,1423.06 1029.5,1420.5C 1029.5,1418.5 1028.5,1417.5 1026.5,1417.5C 1018.52,1410.53 1010.86,1403.19 1003.5,1395.5C 933.925,1316.39 917.425,1227.06 954,1127.5C 990.537,1049.95 1050.04,999.122 1132.5,975C 1218.65,954.214 1298.31,968.381 1371.5,1017.5 Z M 1373.5,1087.5 C 1374.5,1087.41 1375.33,1087.75 1376,1088.5C 1409.09,1126.98 1426.59,1171.98 1428.5,1223.5C 1423.17,1313.87 1378.84,1378.04 1295.5,1416C 1245.66,1435.58 1194.49,1438.08 1142,1423.5C 1134.33,1421.38 1126.83,1418.88 1119.5,1416C 1116.73,1414.94 1114.39,1413.44 1112.5,1411.5C 1111.21,1411.74 1110.21,1411.4 1109.5,1410.5C 1102.55,1407.61 1095.71,1404.27 1089,1400.5C 1084.98,1398.29 1081.48,1395.63 1078.5,1392.5C 1075.95,1391.94 1073.95,1390.61 1072.5,1388.5C 1070.2,1387.22 1067.87,1385.89 1065.5,1384.5C 1061.34,1380.51 1057.01,1376.68 1052.5,1373C 1048.6,1368.94 1044.94,1364.78 1041.5,1360.5C 1040.5,1360.59 1039.67,1360.25 1039,1359.5C 1011.31,1327.58 994.474,1290.25 988.5,1247.5C 982.595,1172.73 1008.6,1111.23 1066.5,1063C 1121.25,1022.25 1182.92,1007.59 1251.5,1019C 1293.21,1027.69 1330.21,1046.35 1362.5,1075C 1366.4,1079.06 1370.06,1083.22 1373.5,1087.5 Z" />
    </g>
    <g>
        <path style="opacity:0.004" fill="#060706"
            d="M 1359.5,1007.5 C 1360.83,1008.17 1360.83,1008.17 1359.5,1007.5 Z" />
    </g>
    <g>
        <path style="opacity:0.004" fill="#060706"
            d="M 1371.5,1016.5 C 1372.83,1017.17 1372.83,1017.17 1371.5,1016.5 Z" />
    </g>
    <g>
        <path style="opacity:0.995" fill="#000000"
            d="M 564.5,1023.5 C 622.168,1023.33 679.834,1023.5 737.5,1024C 766.333,1030.17 783.833,1047.67 790,1076.5C 793.457,1109.1 780.624,1132.6 751.5,1147C 746.946,1148.74 742.279,1150.07 737.5,1151C 679.833,1151.67 622.167,1151.67 564.5,1151C 535.667,1144.83 518.167,1127.33 512,1098.5C 508.552,1069.91 518.719,1047.74 542.5,1032C 549.607,1028.25 556.94,1025.41 564.5,1023.5 Z" />
    </g>
    <g>
        <path style="opacity:0.004" fill="#070807"
            d="M 1028.5,1026.5 C 1029.83,1027.17 1029.83,1027.17 1028.5,1026.5 Z" />
    </g>
    <g>
        <path style="opacity:0.004" fill="#060706"
            d="M 1385.5,1026.5 C 1386.83,1027.17 1386.83,1027.17 1385.5,1026.5 Z" />
    </g>
    <g>
        <path style="opacity:0.004" fill="#060706"
            d="M 1388.5,1029.5 C 1389.83,1030.17 1389.83,1030.17 1388.5,1029.5 Z" />
    </g>
    <g>
        <path style="opacity:0.004" fill="#060706"
            d="M 1410.5,1049.5 C 1411.83,1050.17 1411.83,1050.17 1410.5,1049.5 Z" />
    </g>
    <g>
        <path style="opacity:0.004" fill="#060706"
            d="M 1411.5,1051.5 C 1412.83,1052.17 1412.83,1052.17 1411.5,1051.5 Z" />
    </g>
    <g>
        <path style="opacity:0.963" fill="#070707"
            d="M 1274.5,1242.5 C 1296.31,1254.89 1317.97,1267.06 1339.5,1279C 1351.42,1291.55 1351.42,1303.72 1339.5,1315.5C 1331.4,1322.02 1322.4,1323.68 1312.5,1320.5C 1303.65,1315.45 1294.65,1310.78 1285.5,1306.5C 1272.88,1298.19 1259.55,1290.85 1245.5,1284.5C 1228.5,1274.35 1211.5,1264.85 1194.5,1256C 1189.18,1252.34 1185.34,1247.51 1183,1241.5C 1182.33,1186.5 1182.33,1131.5 1183,1076.5C 1187.28,1065.34 1195.44,1059.67 1207.5,1059.5C 1219.4,1059.91 1227.57,1065.58 1232,1076.5C 1232.17,1124.5 1232.67,1172.5 1233.5,1220.5C 1247.2,1227.89 1260.87,1235.23 1274.5,1242.5 Z" />
    </g>
    <g>
        <path style="opacity:0.004" fill="#060706"
            d="M 1425.5,1067.5 C 1426.83,1068.17 1426.83,1068.17 1425.5,1067.5 Z" />
    </g>
    <g>
        <path style="opacity:0.004" fill="#060706"
            d="M 1430.5,1073.5 C 1431.83,1074.17 1431.83,1074.17 1430.5,1073.5 Z" />
    </g>
    <g>
        <path style="opacity:0.004" fill="#060706"
            d="M 1439.5,1086.5 C 1440.83,1087.17 1440.83,1087.17 1439.5,1086.5 Z" />
    </g>
    <g>
        <path style="opacity:0.004" fill="#060706"
            d="M 1444.5,1093.5 C 1445.83,1094.17 1445.83,1094.17 1444.5,1093.5 Z" />
    </g>
    <g>
        <path style="opacity:0.004" fill="#060706"
            d="M 1416.5,1391.5 C 1417.83,1392.17 1417.83,1392.17 1416.5,1391.5 Z" />
    </g>
    <g>
        <path style="opacity:0.004" fill="#060706"
            d="M 1000.5,1394.5 C 1001.83,1395.17 1001.83,1395.17 1000.5,1394.5 Z" />
    </g>
    <g>
        <path style="opacity:0.004" fill="#060706"
            d="M 1003.5,1395.5 C 1002.83,1396.17 1002.83,1396.17 1003.5,1395.5 Z" />
    </g>
    <g>
        <path style="opacity:0.004" fill="#060706"
            d="M 1026.5,1417.5 C 1025.83,1418.17 1025.83,1418.17 1026.5,1417.5 Z" />
    </g>
    <g>
        <path style="opacity:0.004" fill="#060706"
            d="M 1029.5,1420.5 C 1028.83,1421.17 1028.83,1421.17 1029.5,1420.5 Z" />
    </g>
    <g>
        <path style="opacity:0.004" fill="#060706"
            d="M 1385.5,1420.5 C 1386.83,1421.17 1386.83,1421.17 1385.5,1420.5 Z" />
    </g>
    <g>
        <path style="opacity:0.004" fill="#060706"
            d="M 1043.5,1430.5 C 1042.83,1431.17 1042.83,1431.17 1043.5,1430.5 Z" />
    </g>
    <g>
        <path style="opacity:0.004" fill="#070807"
            d="M 1054.5,1439.5 C 1055.83,1440.17 1055.83,1440.17 1054.5,1439.5 Z" />
    </g>
</svg>
