<svg width="76" height="76" viewBox="0 0 76 76" fill="none" xmlns="http://www.w3.org/2000/svg">
<g clip-path="url(#clip0_2506_1606)">
<path d="M56.7463 42.9532H45.5241C44.8317 42.9532 44.2703 42.3918 44.2703 41.6994C44.2703 41.0069 44.8317 40.4456 45.5241 40.4456H55.4925V19.5076H34.5544V28.0968C34.5544 28.7893 33.9931 29.3506 33.3007 29.3506C32.6082 29.3506 32.0469 28.7893 32.0469 28.0968V18.2538C32.0469 17.5613 32.6081 17 33.3007 17H56.7463C57.4387 17 58 17.5613 58 18.2538V41.6994C58 42.3919 57.4387 42.9532 56.7463 42.9532Z" fill="#797979"/>
<path d="M35.4518 58H18.2538C17.5613 58 17 57.4387 17 56.7463V33.3007C17 32.6082 17.5613 32.0469 18.2538 32.0469H41.6994C42.3918 32.0469 42.9532 32.6082 42.9532 33.3007V49.2228C42.9532 49.9153 42.3918 50.4766 41.6994 50.4766C41.0069 50.4766 40.4456 49.9153 40.4456 49.2228V34.5544H19.5076V55.4926H35.4518C36.1443 55.4926 36.7056 56.0539 36.7056 56.7463C36.7056 57.4387 36.1443 58 35.4518 58Z" fill="#797979"/>
<path d="M25.7773 25.7771V33.3005H41.6995V49.2227H49.2229V25.7771H25.7773Z" fill="#929292"/>
<path d="M49.2228 50.4766H41.6994C41.007 50.4766 40.4456 49.9153 40.4456 49.2228V34.5544H25.7772C25.0848 34.5544 24.5234 33.9931 24.5234 33.3006V25.7772C24.5234 25.0848 25.0848 24.5234 25.7772 24.5234H49.2228C49.9153 24.5234 50.4766 25.0848 50.4766 25.7772V49.2228C50.4766 49.9153 49.9153 50.4766 49.2228 50.4766ZM42.9532 47.969H47.969V27.031H27.031V32.0469H41.6995C42.3919 32.0469 42.9533 32.6082 42.9533 33.3006V47.969H42.9532Z" fill="#797979"/>
</g>
<path d="M3 38C3 9.1775 9.1775 3 38 3C66.8225 3 73 9.1775 73 38C73 66.8225 66.8225 73 38 73C9.1775 73 3 66.8225 3 38Z" stroke="#797979" stroke-width="5"/>
<defs>
<clipPath id="clip0_2506_1606">
<rect width="41" height="41" fill="white" transform="translate(17 17)"/>
</clipPath>
</defs>
</svg>
