<svg width="76" height="76" viewBox="0 0 76 76" fill="none" xmlns="http://www.w3.org/2000/svg">
<path d="M3 38C3 9.1775 9.1775 3 38 3C66.8225 3 73 9.1775 73 38C73 66.8225 66.8225 73 38 73C9.1775 73 3 66.8225 3 38Z" stroke="#797979" stroke-width="5"/>
<path d="M58 38.4078V41.45C58 49.2516 58 53.1526 55.6568 55.5762C53.3138 58 49.5424 58 42 58H34C26.4575 58 22.6863 58 20.3431 55.5762C18 53.1526 18 49.2516 18 41.45V38.4078C18 33.831 18 31.5426 19.0384 29.6455C20.0768 27.7484 21.9739 26.571 25.7681 24.2163L29.7681 21.7337C33.7788 19.2446 35.7842 18 38 18C40.2158 18 42.2212 19.2446 46.232 21.7337L50.232 24.2162C54.0262 26.571 55.9232 27.7484 56.9616 29.6455" stroke="#797979" stroke-width="4" stroke-linecap="round"/>
<path d="M44 50H32" stroke="#797979" stroke-width="4" stroke-linecap="round"/>
</svg>
