<svg width="76" height="76" viewBox="0 0 76 76" fill="none" xmlns="http://www.w3.org/2000/svg">
<path d="M3 38C3 9.1775 9.1775 3 38 3C66.8225 3 73 9.1775 73 38C73 66.8225 66.8225 73 38 73C9.1775 73 3 66.8225 3 38Z" stroke="#797979" stroke-width="5"/>
<path d="M36.0577 23.9925L37.4987 25.4896L38.9397 23.9925C43.5838 19.1673 48.4212 18.762 51.9926 20.3945C55.69 22.0846 58.4154 26.1153 58.4154 30.9391C58.4154 35.887 56.3943 39.7048 53.4715 42.9959C51.0561 45.7158 48.1351 47.968 45.2624 50.1829C44.5775 50.711 43.8952 51.237 43.2233 51.7667C42.0152 52.7191 40.955 53.5407 39.9381 54.1348C38.9207 54.7294 38.1368 54.9791 37.4987 54.9791C36.8606 54.9791 36.0767 54.7294 35.0593 54.1348C34.0425 53.5407 32.9822 52.7191 31.7742 51.7668C31.1022 51.237 30.42 50.711 29.735 50.1828C26.8623 47.9679 23.9413 45.7158 21.5259 42.9959C18.6031 39.7048 16.582 35.887 16.582 30.9391C16.582 26.1152 19.3074 22.0846 23.0048 20.3945C26.5761 18.762 31.4135 19.1673 36.0577 23.9925Z" stroke="#797979" stroke-width="4"/>
</svg>
