<svg width="76" height="76" viewBox="0 0 76 76" fill="none" xmlns="http://www.w3.org/2000/svg">
<path d="M3 38C3 9.1775 9.1775 3 38 3C66.8225 3 73 9.1775 73 38C73 66.8225 66.8225 73 38 73C9.1775 73 3 66.8225 3 38Z" stroke="white" stroke-width="5"/>
<g clip-path="url(#clip0_2506_1638)">
<path fill-rule="evenodd" clip-rule="evenodd" d="M46.1663 30C46.1663 25.588 42.5037 22 38 22C33.4963 22 29.8338 25.588 29.8338 30C29.8338 34.412 33.4963 38 38 38C42.5037 38 46.1663 34.412 46.1663 30ZM53.8916 58H50.2494C49.1225 58 48.2079 57.104 48.2079 56C48.2079 54.896 49.1225 54 50.2494 54H51.1252C52.538 54 53.5812 52.6059 53.0464 51.3239C50.574 45.3959 44.7678 42 38 42C31.2323 42 25.426 45.3959 22.9537 51.3239C22.4188 52.6059 23.4621 54 24.8748 54H25.7506C26.8776 54 27.7922 54.896 27.7922 56C27.7922 57.104 26.8776 58 25.7506 58H22.1085C19.5565 58 17.5476 55.7139 18.0886 53.2719C19.5749 46.5539 24.2154 41.5959 30.3278 39.3459C27.5391 37.1479 25.7506 33.78 25.7506 30C25.7506 22.898 32.0468 17.238 39.4679 18.084C44.8454 18.696 49.3001 22.8939 50.1065 28.1399C50.8006 32.6619 48.9122 36.7919 45.6722 39.3459C51.7846 41.5959 56.4251 46.5539 57.9114 53.2719C58.4524 55.7139 56.4435 58 53.8916 58ZM44.1247 56C44.1247 57.104 43.2101 58 42.0832 58H33.9169C32.79 58 31.8753 57.104 31.8753 56C31.8753 54.896 32.79 54 33.9169 54H42.0832C43.2101 54 44.1247 54.896 44.1247 56Z" fill="white"/>
</g>
<defs>
<clipPath id="clip0_2506_1638">
<rect width="40" height="40" fill="white" transform="translate(18 18)"/>
</clipPath>
</defs>
</svg>
