<svg width="40" height="40" viewBox="0 0 40 40" fill="none" xmlns="http://www.w3.org/2000/svg">
    <path
        d="M40 36.3057V30.4781V16.6571V14.8917V13.9681C40 12.2436 38.6323 10.8296 36.9615 10.8296H26.5766C24.9058 10.8296 23.5381 12.2436 23.5381 13.9681V14.8917V36.3057V36.8615C23.5381 38.586 24.9058 40 26.5766 40H36.9615C38.6323 40 40 38.586 40 36.8615V36.3057ZM33.0794 38.6841H30.1474C29.7134 38.6841 29.3612 38.3163 29.3612 37.8668C29.3612 37.4172 29.7134 37.0494 30.1474 37.0494H33.0794C33.5135 37.0494 33.8657 37.4172 33.8657 37.8668C33.8657 38.3163 33.5135 38.6841 33.0794 38.6841ZM37.24 35.7417C37.2236 35.7417 37.199 35.7499 37.1826 35.7499H26.3554C26.3391 35.7499 26.3145 35.7417 26.2981 35.7417V15.1124C26.3145 15.1124 26.3391 15.1042 26.3554 15.1042H37.1826C37.199 15.1042 37.2154 15.1124 37.2318 15.1124V35.7417H37.24ZM8.61589 40H13.7592H21.6953C21.163 39.0764 20.8518 38.0057 20.8518 36.8615V34.9898H17.9279H3.42342V4.34001H25.6839V8.09154C25.9787 8.05067 26.2735 8.01798 26.5766 8.01798H29.0663V4.19289V3.67797V3.22027C29.0663 1.88803 28.2801 0.743768 27.1581 0.253371C26.7813 0.089906 26.3718 0 25.9378 0H13.7674L3.12858 0C2.69451 0 2.28501 0.089906 1.90827 0.253371C0.786241 0.743768 0 1.88803 0 3.22027V3.80057V32.8484V36.7797C0 38.5615 1.40049 40 3.12039 40H8.61589ZM13.0631 36.747H15.9951C16.4292 36.747 16.7813 37.1148 16.7813 37.5644C16.7813 38.0139 16.4292 38.3817 15.9951 38.3817H13.0631C12.629 38.3817 12.2768 38.0139 12.2768 37.5644C12.2768 37.1148 12.629 36.747 13.0631 36.747Z"
        fill="white" />
</svg>
