<svg width="20" height="20" viewBox="0 0 20 20" fill="none" xmlns="http://www.w3.org/2000/svg">
    <path
        d="M1.75 13.8571C1.75 13.4429 1.41421 13.1071 1 13.1071C0.585786 13.1071 0.25 13.4429 0.25 13.8571H1.75ZM1 15.1429H0.25H1ZM19.75 13.8571C19.75 13.4429 19.4142 13.1071 19 13.1071C18.5858 13.1071 18.25 13.4429 18.25 13.8571H19.75ZM9.41435 14.6743C9.15559 14.9978 9.20803 15.4698 9.53148 15.7285C9.85493 15.9873 10.3269 15.9348 10.5857 15.6114L9.41435 14.6743ZM15.7285 9.18281C15.9873 8.85936 15.9348 8.38739 15.6114 8.12863C15.2879 7.86988 14.816 7.92232 14.5572 8.24576L15.7285 9.18281ZM9.41438 15.6114C9.67314 15.9348 10.1451 15.9873 10.4686 15.7285C10.792 15.4698 10.8444 14.9978 10.5857 14.6743L9.41438 15.6114ZM5.44283 8.24576C5.18407 7.92232 4.7121 7.86988 4.38866 8.12863C4.06521 8.38739 4.01277 8.85936 4.27153 9.18281L5.44283 8.24576ZM9.25004 15.1429C9.25004 15.5571 9.58583 15.8929 10 15.8929C10.4143 15.8929 10.75 15.5571 10.75 15.1429H9.25004ZM10.75 1C10.75 0.585786 10.4143 0.25 10 0.25C9.58583 0.25 9.25004 0.585786 9.25004 1H10.75ZM0.25 13.8571V15.1429H1.75V13.8571H0.25ZM0.25 15.1429C0.25 17.6873 2.31269 19.75 4.85714 19.75V18.25C3.14112 18.25 1.75 16.8589 1.75 15.1429H0.25ZM4.85714 19.75H15.1429V18.25H4.85714V19.75ZM15.1429 19.75C17.6873 19.75 19.75 17.6873 19.75 15.1429H18.25C18.25 16.8589 16.8589 18.25 15.1429 18.25V19.75ZM19.75 15.1429V13.8571H18.25V15.1429H19.75ZM10.5857 15.6114L15.7285 9.18281L14.5572 8.24576L9.41435 14.6743L10.5857 15.6114ZM10.5857 14.6743L5.44283 8.24576L4.27153 9.18281L9.41438 15.6114L10.5857 14.6743ZM10.75 15.1429V1H9.25004V15.1429H10.75Z"
        fill="white" />
</svg>
