<svg width="20" height="20" viewBox="0 0 20 20" fill="none" xmlns="http://www.w3.org/2000/svg">
    <path fill-rule="evenodd" clip-rule="evenodd"
        d="M4.16602 9.99999C4.16622 7.21707 6.13222 4.82183 8.8617 4.27909C11.5912 3.73635 14.324 5.19728 15.3888 7.76843C16.4536 10.3396 15.5539 13.3049 13.2399 14.8508C10.9259 16.3968 7.84207 16.0929 5.87435 14.125C4.78041 13.0309 4.1659 11.5471 4.16602 9.99999Z"
        stroke="#FF0000" stroke-width="1.5" stroke-linecap="round" stroke-linejoin="round" />
    <path
        d="M7.28227 11.6561C6.98932 11.9489 6.98923 12.4238 7.28207 12.7168C7.57491 13.0097 8.04978 13.0098 8.34273 12.717L7.28227 11.6561ZM10.5302 10.5303C10.8232 10.2375 10.8233 9.76258 10.5304 9.46963C10.2376 9.17668 9.76272 9.17659 9.46977 9.46943L10.5302 10.5303ZM9.46947 9.46973C9.17669 9.76273 9.17687 10.2376 9.46987 10.5304C9.76288 10.8232 10.2378 10.823 10.5305 10.53L9.46947 9.46973ZM12.7172 8.34165C13.01 8.04865 13.0098 7.57377 12.7168 7.28099C12.4238 6.98821 11.9489 6.98839 11.6561 7.2814L12.7172 8.34165ZM10.5302 9.46943C10.2373 9.17659 9.76241 9.17668 9.46957 9.46963C9.17673 9.76258 9.17682 10.2375 9.46977 10.5303L10.5302 9.46943ZM11.6573 12.717C11.9502 13.0098 12.4251 13.0097 12.7179 12.7168C13.0108 12.4238 13.0107 11.9489 12.7177 11.6561L11.6573 12.717ZM9.46957 10.5301C9.76241 10.823 10.2373 10.8231 10.5302 10.5303C10.8232 10.2375 10.8233 9.76258 10.5304 9.46963L9.46957 10.5301ZM8.34293 7.28129C8.05009 6.98835 7.57522 6.98825 7.28227 7.28109C6.98932 7.57393 6.98923 8.0488 7.28207 8.34175L8.34293 7.28129ZM8.34273 12.717L10.5302 10.5303L9.46977 9.46943L7.28227 11.6561L8.34273 12.717ZM10.5305 10.53L12.7172 8.34165L11.6561 7.2814L9.46947 9.46973L10.5305 10.53ZM9.46977 10.5303L11.6573 12.717L12.7177 11.6561L10.5302 9.46943L9.46977 10.5303ZM10.5304 9.46963L8.34293 7.28129L7.28207 8.34175L9.46957 10.5301L10.5304 9.46963Z"
        fill="#FF0000" />
</svg>
