<svg width="40" height="40" viewBox="0 0 40 40" fill="none" xmlns="http://www.w3.org/2000/svg">
<path d="M13.75 7.50006V3.74756C13.75 3.41604 13.8817 3.0981 14.1161 2.86368C14.3505 2.62925 14.6685 2.49756 15 2.49756H25C25.3315 2.49756 25.6495 2.62925 25.8839 2.86368C26.1183 3.0981 26.25 3.41604 26.25 3.74756V7.50006H36.25C36.5815 7.50006 36.8995 7.63175 37.1339 7.86617C37.3683 8.10059 37.5 8.41854 37.5 8.75006C37.5 9.08158 37.3683 9.39952 37.1339 9.63394C36.8995 9.86836 36.5815 10.0001 36.25 10.0001H3.75C3.41848 10.0001 3.10054 9.86836 2.86612 9.63394C2.6317 9.39952 2.5 9.08158 2.5 8.75006C2.5 8.41854 2.6317 8.10059 2.86612 7.86617C3.10054 7.63175 3.41848 7.50006 3.75 7.50006H13.75ZM16.25 7.50006H23.75V5.00006H16.25V7.50006ZM7.5 37.5001C7.16848 37.5001 6.85054 37.3684 6.61612 37.1339C6.3817 36.8995 6.25 36.5816 6.25 36.2501V10.0001H33.75V36.2501C33.75 36.5816 33.6183 36.8995 33.3839 37.1339C33.1495 37.3684 32.8315 37.5001 32.5 37.5001H7.5ZM16.25 30.0001C16.5815 30.0001 16.8995 29.8684 17.1339 29.6339C17.3683 29.3995 17.5 29.0816 17.5 28.7501V16.2501C17.5 15.9185 17.3683 15.6006 17.1339 15.3662C16.8995 15.1318 16.5815 15.0001 16.25 15.0001C15.9185 15.0001 15.6005 15.1318 15.3661 15.3662C15.1317 15.6006 15 15.9185 15 16.2501V28.7501C15 29.0816 15.1317 29.3995 15.3661 29.6339C15.6005 29.8684 15.9185 30.0001 16.25 30.0001ZM23.75 30.0001C24.0815 30.0001 24.3995 29.8684 24.6339 29.6339C24.8683 29.3995 25 29.0816 25 28.7501V16.2501C25 15.9185 24.8683 15.6006 24.6339 15.3662C24.3995 15.1318 24.0815 15.0001 23.75 15.0001C23.4185 15.0001 23.1005 15.1318 22.8661 15.3662C22.6317 15.6006 22.5 15.9185 22.5 16.2501V28.7501C22.5 29.0816 22.6317 29.3995 22.8661 29.6339C23.1005 29.8684 23.4185 30.0001 23.75 30.0001Z" fill="#FF0000"/>
</svg>
