<svg width="120" height="120" viewBox="0 0 120 120" fill="none" xmlns="http://www.w3.org/2000/svg">
    <path opacity="0.5"
        d="M10 60C10 36.4298 10 24.6446 17.3223 17.3223C24.6446 10 36.4298 10 60 10C83.57 10 95.3555 10 102.677 17.3223C110 24.6446 110 36.4298 110 60C110 83.57 110 95.3555 102.677 102.677C95.3555 110 83.57 110 60 110C36.4298 110 24.6446 110 17.3223 102.677C10 95.3555 10 83.57 10 60Z"
        fill="white" />
    <path
        d="M63.75 35C63.75 32.929 62.071 31.25 60 31.25C57.929 31.25 56.25 32.929 56.25 35V60.9465L47.6516 52.3485C46.1872 50.884 43.8128 50.884 42.3483 52.3485C40.8839 53.813 40.8839 56.187 42.3483 57.6515L57.3485 72.6515C58.0515 73.355 59.0055 73.75 60 73.75C60.9945 73.75 61.9485 73.355 62.6515 72.6515L77.6515 57.6515C79.116 56.187 79.116 53.813 77.6515 52.3485C76.187 50.884 73.813 50.884 72.3485 52.3485L63.75 60.9465V35Z"
        fill="white" />
    <path
        d="M40 81.25C37.929 81.25 36.25 82.929 36.25 85C36.25 87.071 37.929 88.75 40 88.75H80C82.071 88.75 83.75 87.071 83.75 85C83.75 82.929 82.071 81.25 80 81.25H40Z"
        fill="white" />
</svg>
