<svg width="40" height="40" viewBox="0 0 40 40" fill="none" xmlns="http://www.w3.org/2000/svg">
<path opacity="0.5" d="M36.6673 19.9999C36.6673 29.2046 29.2053 36.6666 20.0007 36.6666C10.7959 36.6666 3.33398 29.2046 3.33398 19.9999C3.33398 10.7952 10.7959 3.33325 20.0007 3.33325C29.2053 3.33325 36.6673 10.7952 36.6673 19.9999Z" fill="#FF0000"/>
<path d="M13.4609 14.3621C13.334 14.6684 13.334 15.0567 13.334 15.8333V24.1666C13.334 24.9431 13.334 25.3314 13.4609 25.6378C13.63 26.0461 13.9545 26.3706 14.3629 26.5398C14.6691 26.6666 15.0574 26.6666 15.834 26.6666C16.6106 26.6666 16.9988 26.6666 17.3052 26.5398C17.7135 26.3706 18.038 26.0461 18.2072 25.6378C18.334 25.3314 18.334 24.9431 18.334 24.1666V15.8333C18.334 15.0567 18.334 14.6684 18.2072 14.3621C18.038 13.9537 17.7135 13.6293 17.3052 13.4601C16.9988 13.3333 16.6106 13.3333 15.834 13.3333C15.0574 13.3333 14.6691 13.3333 14.3629 13.4601C13.9545 13.6293 13.63 13.9537 13.4609 14.3621Z" fill="#FF0000"/>
<path d="M21.7928 14.3621C21.666 14.6684 21.666 15.0567 21.666 15.8333V24.1666C21.666 24.9431 21.666 25.3314 21.7928 25.6378C21.962 26.0461 22.2865 26.3706 22.6948 26.5398C23.0012 26.6666 23.3895 26.6666 24.166 26.6666C24.9425 26.6666 25.3308 26.6666 25.6372 26.5398C26.0455 26.3706 26.37 26.0461 26.5392 25.6378C26.666 25.3314 26.666 24.9431 26.666 24.1666V15.8333C26.666 15.0567 26.666 14.6684 26.5392 14.3621C26.37 13.9537 26.0455 13.6293 25.6372 13.4601C25.3308 13.3333 24.9425 13.3333 24.166 13.3333C23.3895 13.3333 23.0012 13.3333 22.6948 13.4601C22.2865 13.6293 21.962 13.9537 21.7928 14.3621Z" fill="#FF0000"/>
</svg>
