<?xml version="1.0" encoding="iso-8859-1"?><!-- Uploaded to: SVG Repo, www.svgrepo.com, Generator: SVG Repo Mixer Tools -->
<!DOCTYPE svg PUBLIC "-//W3C//DTD SVG 1.1//EN" "http://www.w3.org/Graphics/SVG/1.1/DTD/svg11.dtd">
<svg fill="#000000" version="1.1" id="Capa_1" xmlns="http://www.w3.org/2000/svg"
    xmlns:xlink="http://www.w3.org/1999/xlink" width="800px" height="800px"
    viewBox="0 0 159.874 159.875" xml:space="preserve">
<g>
	<path d="M159.874,91.329l-14.653-14.644c4.54-10.651,6.951-22.455,5.805-35.358c-4.451-49.68-65.562-35.062-75.368-6.797
		C65.851,6.258,4.74-8.359,0.289,41.327c-5.719,63.916,75.368,101.366,75.368,101.366s4.049-1.873,10.252-5.479l14.041,14.038
		l19.258-19.258l19.263,19.258l21.403-21.397l-19.27-19.257L159.874,91.329z M151.314,129.849l-12.844,12.838l-19.263-19.257
		L99.95,142.687l-12.841-12.838l19.266-19.257L87.109,91.329L99.95,78.497l19.258,19.257l19.263-19.257l12.844,12.832
		l-19.269,19.264L151.314,129.849z" />
</g>
</svg>