<svg width="20" height="20" viewBox="0 0 20 20" fill="none" xmlns="http://www.w3.org/2000/svg">
    <path
        d="M2.64232 17.357C3.61864 18.3333 5.18998 18.3333 8.33268 18.3333H11.666C14.8087 18.3333 16.3801 18.3333 17.3563 17.357C18.3327 16.3807 18.3327 14.8093 18.3327 11.6667C18.3327 10.6918 18.3327 9.86825 18.3035 9.16667M17.3563 5.97631C16.3801 5 14.8087 5 11.666 5H8.33268C5.18998 5 3.61864 5 2.64232 5.97631C1.66602 6.95262 1.66602 8.524 1.66602 11.6667C1.66602 12.6415 1.66602 13.4651 1.69515 14.1667"
        stroke="white" stroke-linecap="round" />
    <path
        d="M9.99935 1.66675C11.5707 1.66675 12.3563 1.66675 12.8445 2.15491C13.3327 2.64306 13.3327 3.42873 13.3327 5.00008M7.15417 2.15491C6.66602 2.64306 6.66602 3.42873 6.66602 5.00008"
        stroke="white" stroke-linecap="round" />
    <path
        d="M10.0007 14.4443C10.9212 14.4443 11.6673 13.8225 11.6673 13.0555C11.6673 12.2884 10.9212 11.6666 10.0007 11.6666C9.08015 11.6666 8.33398 11.0448 8.33398 10.2777C8.33398 9.51067 9.08015 8.88884 10.0007 8.88884M10.0007 14.4443C9.08015 14.4443 8.33398 13.8225 8.33398 13.0555M10.0007 14.4443V14.9999M10.0007 8.88884V8.33325M10.0007 8.88884C10.9212 8.88884 11.6673 9.51067 11.6673 10.2777"
        stroke="white" stroke-linecap="round" />
</svg>
