<svg width="40" height="40" viewBox="0 0 40 40" fill="none" xmlns="http://www.w3.org/2000/svg">
    <g clip-path="url(#clip0_2484_1591)">
        <path
            d="M20 40C31.0457 40 40 31.0457 40 20C40 8.95431 31.0457 0 20 0C8.95431 0 0 8.95431 0 20C0 31.0457 8.95431 40 20 40Z"
            fill="#324A5E" />
        <path
            d="M26.7401 21.6691L26.7086 21.7006C26.6771 21.7006 26.6456 21.7636 26.5826 21.7951C26.5196 21.8581 26.4566 21.921 26.3937 22.0155C26.3307 22.11 26.2362 22.2045 26.1417 22.3305C26.1102 22.3935 26.0787 22.4565 26.0157 22.551C25.9842 22.614 25.9527 22.7084 25.8897 22.7714C25.8267 22.9289 25.7637 23.1179 25.7007 23.3069C25.6692 23.4014 25.6377 23.4958 25.6377 23.6218C25.6377 23.6848 25.6063 23.7163 25.6063 23.7793V23.8108L25.5748 23.8738V23.9368L25.5433 24.0313V24.0943L25.5118 24.1888L25.4488 24.3462L25.4173 24.4407L25.3858 24.5037L25.3228 24.6297C25.2283 24.8187 25.1653 24.9762 25.0708 25.1336C24.6929 25.7951 24.1889 26.2675 23.7165 26.6769C23.244 27.0864 22.7716 27.3699 22.3622 27.6218C22.2677 27.6848 22.1732 27.7163 22.1102 27.7793C21.7637 28.0313 21.3543 28.2518 20.9133 28.3462C20.7244 28.4092 20.5039 28.4407 20.3149 28.4092C20.2834 28.4092 20.2519 28.4092 20.2204 28.4092H15.8425C14.1417 28.4092 12.7559 27.0234 12.7559 25.3226V15.0549C12.7559 14.4565 13.2598 13.9525 13.8582 13.9525C14.4566 13.9525 14.9606 14.4565 14.9606 15.0549V19.3069H15.5275V14.2675C15.5275 13.9525 15.6535 13.7006 15.8425 13.4801C16.0314 13.2911 16.3149 13.1651 16.6299 13.1651C17.2283 13.1651 17.7322 13.6691 17.7322 14.2675V19.3069H18.3307V12.6297C18.3307 12.0313 18.8346 11.5273 19.433 11.5273C20.0315 11.5273 20.5354 12.0313 20.5354 12.6297V19.3069H21.1023V13.4486C21.1023 12.8502 21.6063 12.3462 22.2047 12.3462C22.8031 12.3462 23.307 12.8502 23.307 13.4486V21.7636C23.37 21.6376 23.4645 21.4801 23.5275 21.3541C23.5905 21.2281 23.685 21.1021 23.7795 21.0077C23.874 20.8817 23.937 20.7872 24.0315 20.6927C24.1889 20.5037 24.3779 20.3147 24.5354 20.1888C24.6929 20.0313 24.8503 19.9368 24.9763 19.8423C25.1023 19.7478 25.2283 19.6848 25.3228 19.6218C25.3543 19.5903 25.4173 19.5588 25.4488 19.5588C25.4803 19.5588 25.4803 19.5588 25.4803 19.5588C26.0157 19.3069 26.7086 19.5273 27.0866 20.0628C27.433 20.5982 27.307 21.3541 26.7401 21.6691Z"
            fill="#FF7058" />
        <path
            d="M30.5506 9.44869C24.7238 3.62192 15.275 3.62192 9.4482 9.44869C3.62143 15.2755 3.62143 24.7243 9.4482 30.5511C15.275 36.3778 24.7238 36.3778 30.5506 30.5511C36.3773 24.7243 36.3773 15.2755 30.5506 9.44869ZM28.3458 11.6534C32.5348 15.8739 32.9128 22.4251 29.4482 27.055L12.9443 10.5511C17.5742 7.08649 24.1254 7.46444 28.3458 11.6534ZM11.6529 28.3463C7.46395 24.1259 7.086 17.5747 10.5506 12.9448L27.0545 29.4487C22.4246 32.9133 15.8734 32.5353 11.6529 28.3463Z"
            fill="white" />
    </g>
    <defs>
        <clipPath id="clip0_2484_1591">
            <rect width="40" height="40" fill="white" />
        </clipPath>
    </defs>
</svg>
