<svg width="35" height="35" viewBox="0 0 35 35" fill="none" xmlns="http://www.w3.org/2000/svg">
    <path
        d="M15.0221 19.9718L29.3153 5.68385M15.4284 20.6144L18.6694 27.0965C19.4526 28.6629 19.8442 29.4462 20.3375 29.6562C20.7657 29.8385 21.2551 29.8054 21.655 29.5674C22.1157 29.2931 22.3986 28.4643 22.9646 26.8069L29.0883 8.87311C29.5815 7.429 29.8279 6.70693 29.6592 6.22927C29.5124 5.81373 29.1855 5.48686 28.7701 5.34005C28.2923 5.17129 27.5703 5.41785 26.1261 5.91096L8.1923 12.0347C6.53492 12.6007 5.70622 12.8836 5.43189 13.3443C5.19382 13.7441 5.16083 14.2336 5.34309 14.6616C5.55312 15.155 6.33635 15.5467 7.9028 16.3298L14.3849 19.5709C14.643 19.7 14.7721 19.7645 14.8838 19.8507C14.9831 19.9272 15.0721 20.0162 15.1485 20.1153C15.2348 20.2272 15.2993 20.3563 15.4284 20.6144Z"
        stroke="white" stroke-width="2" stroke-linecap="round" stroke-linejoin="round" />
</svg>
